<svg xmlns="http://www.w3.org/2000/svg" xmlns:xlink="http://www.w3.org/1999/xlink" data-name="server-deploy" viewBox="0 0 150 121.518"><defs><linearGradient id="f" x1="81.49" x2="149.063" y1="104.189" y2="104.189" gradientTransform="matrix(1 0 0 -1 0 152.336)" gradientUnits="userSpaceOnUse"><stop offset="0" stop-color="#ebe9eb"/><stop offset="1" stop-color="#99a7d8"/></linearGradient><linearGradient id="g" x1="36.909" x2="147.208" y1="62.971" y2="62.971" gradientTransform="matrix(1 0 0 -1 0 152.336)" gradientUnits="userSpaceOnUse"><stop offset="0" stop-color="#fff"/><stop offset="1" stop-color="#99a7d8"/></linearGradient><linearGradient id="h" x1="17.375" x2="56.578" y1="110.073" y2="110.073" gradientTransform="matrix(1 0 0 -1 0 152.336)" gradientUnits="userSpaceOnUse"><stop offset="0" stop-color="#b8c1e4"/><stop offset=".46" stop-color="#c2cae8"/><stop offset=".5" stop-color="#d2d9ed"/><stop offset=".5" stop-color="#d3daed"/></linearGradient><linearGradient id="i" x1="24.286" x2="49.662" y1="128.383" y2="128.383" gradientTransform="matrix(1 0 0 -1 0 152.336)" gradientUnits="userSpaceOnUse"><stop offset="0" stop-color="#48486a"/><stop offset="1" stop-color="#5c629e"/></linearGradient><linearGradient id="d" x1="27.966" x2="45.993" y1="128.893" y2="128.893" gradientTransform="matrix(1 0 0 -1 0 152.336)" gradientUnits="userSpaceOnUse"><stop offset=".15" stop-color="#4d9ed7"/><stop offset="1" stop-color="#67bce9"/></linearGradient><linearGradient id="b" x1="27.959" x2="45.995" y1="131.388" y2="131.388" gradientTransform="matrix(1 0 0 -1 0 152.336)" gradientUnits="userSpaceOnUse"><stop offset="0" stop-color="#99a7d8"/><stop offset=".3" stop-color="#a6b3dd"/><stop offset=".86" stop-color="#c9d2ea"/><stop offset="1" stop-color="#d3daed"/></linearGradient><linearGradient id="a" x1="27.966" x2="45.993" y1="128.893" y2="128.893" gradientTransform="matrix(1 0 0 -1 0 152.336)" gradientUnits="userSpaceOnUse"><stop offset=".08" stop-color="#4d9ed7"/><stop offset="1" stop-color="#7bbae5"/></linearGradient><linearGradient id="j" x1="27.966" x2="45.993" y1="129.177" y2="129.177" xlink:href="#a"/><linearGradient id="k" x1="27.966" x2="45.993" y1="129.465" y2="129.465" xlink:href="#a"/><linearGradient id="l" x1="27.966" x2="45.993" y1="129.748" y2="129.748" xlink:href="#a"/><linearGradient id="m" x1="27.966" x2="45.993" y1="130.037" y2="130.037" xlink:href="#a"/><linearGradient id="n" x1="27.966" x2="45.993" y1="130.32" y2="130.32" xlink:href="#a"/><linearGradient id="o" x1="27.966" x2="45.993" y1="130.608" y2="130.608" xlink:href="#a"/><linearGradient id="p" x1="27.966" x2="45.993" y1="130.892" y2="130.892" xlink:href="#a"/><linearGradient id="q" x1="27.966" x2="45.993" y1="131.18" y2="131.18" xlink:href="#a"/><linearGradient id="r" x1="27.966" x2="45.993" y1="131.464" y2="131.464" xlink:href="#a"/><linearGradient id="s" x1="27.966" x2="45.993" y1="131.752" y2="131.752" xlink:href="#a"/><linearGradient id="t" x1="27.966" x2="45.993" y1="132.035" y2="132.035" xlink:href="#a"/><linearGradient id="u" x1="27.966" x2="45.993" y1="132.324" y2="132.324" xlink:href="#a"/><linearGradient id="v" x1="27.966" x2="45.993" y1="132.607" y2="132.607" xlink:href="#a"/><linearGradient id="w" x1="27.966" x2="45.993" y1="132.896" y2="132.896" xlink:href="#a"/><linearGradient id="x" x1="27.966" x2="45.993" y1="133.179" y2="133.179" xlink:href="#a"/><linearGradient id="y" x1="27.966" x2="45.993" y1="133.468" y2="133.468" xlink:href="#a"/><linearGradient id="z" x1="27.966" x2="45.993" y1="133.751" y2="133.751" xlink:href="#a"/><linearGradient id="A" x1="27.966" x2="45.993" y1="134.04" y2="134.04" xlink:href="#a"/><linearGradient id="B" x1="27.966" x2="45.993" y1="134.323" y2="134.323" xlink:href="#a"/><linearGradient id="C" x1="27.966" x2="45.993" y1="134.612" y2="134.612" xlink:href="#a"/><linearGradient id="D" x1="27.966" x2="45.993" y1="134.896" y2="134.896" xlink:href="#a"/><linearGradient id="E" x1="27.966" x2="45.993" y1="135.185" y2="135.185" xlink:href="#a"/><linearGradient id="F" x1="27.966" x2="45.993" y1="135.467" y2="135.467" xlink:href="#a"/><linearGradient id="G" x1="27.966" x2="45.993" y1="135.756" y2="135.756" xlink:href="#a"/><linearGradient id="H" x1="27.966" x2="45.993" y1="136.039" y2="136.039" xlink:href="#a"/><linearGradient id="I" x1="27.966" x2="45.993" y1="136.322" y2="136.322" xlink:href="#a"/><linearGradient id="J" x1="27.966" x2="45.993" y1="136.611" y2="136.611" xlink:href="#a"/><linearGradient id="K" x1="27.966" x2="45.993" y1="136.894" y2="136.894" xlink:href="#a"/><linearGradient id="L" x1="27.966" x2="45.993" y1="137.183" y2="137.183" xlink:href="#a"/><linearGradient id="M" x1="27.966" x2="45.993" y1="137.466" y2="137.466" xlink:href="#a"/><linearGradient id="N" x1="27.966" x2="45.993" y1="137.755" y2="137.755" xlink:href="#a"/><linearGradient id="O" x1="27.966" x2="45.993" y1="138.038" y2="138.038" xlink:href="#a"/><linearGradient id="P" x1="27.966" x2="45.993" y1="138.327" y2="138.327" xlink:href="#a"/><linearGradient id="Q" x1="27.966" x2="45.993" y1="138.61" y2="138.61" xlink:href="#a"/><linearGradient id="R" x1="27.966" x2="45.993" y1="138.899" y2="138.899" xlink:href="#a"/><linearGradient id="S" x1="27.966" x2="45.993" y1="139.182" y2="139.182" xlink:href="#a"/><linearGradient id="T" x1="27.966" x2="45.993" y1="139.47" y2="139.47" xlink:href="#a"/><linearGradient id="U" x1="27.966" x2="45.993" y1="139.754" y2="139.754" xlink:href="#a"/><linearGradient id="V" x1="27.966" x2="45.993" y1="140.042" y2="140.042" xlink:href="#a"/><linearGradient id="W" x1="27.966" x2="45.993" y1="140.326" y2="140.326" xlink:href="#a"/><linearGradient id="X" x1="27.966" x2="45.993" y1="140.615" y2="140.615" xlink:href="#a"/><linearGradient id="Y" x1="27.966" x2="45.993" y1="140.897" y2="140.897" xlink:href="#a"/><linearGradient id="Z" x1="27.966" x2="45.993" y1="141.186" y2="141.186" xlink:href="#a"/><linearGradient id="aa" x1="27.966" x2="45.993" y1="141.469" y2="141.469" xlink:href="#a"/><linearGradient id="ab" x1="27.966" x2="45.993" y1="141.754" y2="141.754" xlink:href="#a"/><linearGradient id="ac" x1="27.966" x2="45.993" y1="142.041" y2="142.041" xlink:href="#a"/><linearGradient id="ad" x1="27.966" x2="45.993" y1="142.331" y2="142.331" xlink:href="#a"/><linearGradient id="ae" x1="27.966" x2="45.993" y1="142.614" y2="142.614" xlink:href="#a"/><linearGradient id="af" x1="27.966" x2="45.993" y1="142.903" y2="142.903" xlink:href="#a"/><linearGradient id="ag" x1="27.966" x2="45.993" y1="143.186" y2="143.186" xlink:href="#a"/><linearGradient id="c" x1="38.952" x2="54.758" y1="113.488" y2="113.488" gradientTransform="matrix(1 0 0 -1 0 152.336)" gradientUnits="userSpaceOnUse"><stop offset="0" stop-color="#48486a"/><stop offset="1" stop-color="#535373"/></linearGradient><linearGradient id="ah" x1="39.062" x2="54.758" y1="113.491" y2="113.491" xlink:href="#b"/><linearGradient id="ai" x1="38.952" x2="54.758" y1="99.802" y2="99.802" xlink:href="#c"/><linearGradient id="aj" x1="39.062" x2="54.758" y1="99.817" y2="99.817" xlink:href="#b"/><linearGradient id="ak" x1="49.386" x2="52.222" y1="117.377" y2="117.377" xlink:href="#d"/><linearGradient id="al" x1="40.021" x2="41.691" y1="113.344" y2="113.344" gradientTransform="matrix(1 0 0 -1 .01 148.88)" xlink:href="#d"/><linearGradient id="am" x1="41.939" x2="42.771" y1="114.193" y2="114.193" gradientTransform="matrix(1 0 0 -1 .01 148.88)" xlink:href="#d"/><linearGradient id="an" x1="40.171" x2="52.996" y1="97.576" y2="97.576" gradientTransform="matrix(1 0 0 -1 .01 148.88)" xlink:href="#d"/><linearGradient id="ao" x1="40.622" x2="42.286" y1="100.894" y2="100.894" gradientTransform="matrix(1 0 0 -1 .01 148.88)" xlink:href="#d"/><linearGradient id="e" x1="380.036" x2="380.036" y1="116.717" y2="106.957" gradientTransform="translate(-278.86 -65.79)" gradientUnits="userSpaceOnUse"><stop offset="0" stop-color="#4d9ed7"/><stop offset=".27" stop-color="#54a6dc"/><stop offset=".66" stop-color="#66bbe9"/><stop offset="1" stop-color="#67bce9"/></linearGradient><linearGradient id="ap" x1="68.234" x2="70.258" y1="111.728" y2="111.728" gradientUnits="userSpaceOnUse"><stop offset="0" stop-color="#d3daed"/><stop offset="1" stop-color="#99a7d8"/></linearGradient><linearGradient id="aq" x1="-439.834" x2="-425.368" y1="64.936" y2="64.936" gradientTransform="matrix(1 0 0 -1 466.075 152.336)" xlink:href="#e"/><linearGradient id="ar" x1="-197.316" x2="-176.899" y1="94.177" y2="94.177" gradientTransform="matrix(1 0 0 -1 315.131 152.336)" gradientUnits="userSpaceOnUse"><stop offset="0" stop-color="#ebe9ec"/><stop offset="1" stop-color="#99a7d8"/></linearGradient></defs><path fill="none" d="M77.656 55.882L35.142 80.178a1.379 1.379 0 000 2.396l66.186 38.216a5.485 5.485 0 005.462 0l42.514-24.304a1.379 1.379 0 000-2.395l-66.187-38.2a5.485 5.485 0 00-5.461-.009z" data-name="d0a47fa0-91f1-4977-992a-b0ae32ab4b78"/><path d="M77.702 55.92L35.32 80.11a1.379 1.379 0 000 2.387l65.978 38.131a5.47 5.47 0 005.446 0l42.368-24.226a1.379 1.379 0 000-2.388L83.148 55.929a5.47 5.47 0 00-5.446-.008z" style="isolation:isolate" fill="#fbfbfb" opacity=".024"/><path d="M77.74 55.96L35.489 80.11a1.371 1.371 0 000 2.38l65.786 37.984a5.454 5.454 0 005.43 0l42.253-24.15a1.371 1.371 0 000-2.38L83.171 55.967a5.454 5.454 0 00-5.43-.008z" style="isolation:isolate" fill="#f6f6f8" opacity=".049"/><path d="M77.787 55.998L35.665 80.109a1.363 1.363 0 000 2.373l65.586 37.861a5.43 5.43 0 005.392 0l42.122-24.08a1.363 1.363 0 000-2.372L83.202 56.013a5.43 5.43 0 00-5.415-.015z" style="isolation:isolate" fill="#f2f2f4" opacity=".073"/><path d="M77.833 56.036L35.835 80.04a1.363 1.363 0 000 2.365l65.385 37.746a5.392 5.392 0 005.393 0l41.99-24.004a1.363 1.363 0 000-2.365L83.218 56.036a5.392 5.392 0 00-5.385 0z" style="isolation:isolate" fill="#ededf1" opacity=".098"/><path d="M77.88 56.075L35.99 80.009a1.356 1.356 0 000 2.357l65.184 37.63a5.392 5.392 0 005.393 0l41.89-23.918a1.356 1.356 0 000-2.358l-65.2-37.63a5.392 5.392 0 00-5.378-.015z" style="isolation:isolate" fill="#e9e9ed" opacity=".122"/><path d="M77.918 56.113l-41.736 23.88a1.356 1.356 0 000 2.311l64.977 37.515a5.392 5.392 0 005.392 0l41.736-23.88a1.356 1.356 0 000-2.31l-65-37.5a5.392 5.392 0 00-5.37-.016z" style="isolation:isolate" fill="#e4e4e9" opacity=".146"/><path d="M77.964 56.152l-41.598 23.78a1.348 1.348 0 000 2.311l64.777 37.4a5.392 5.392 0 005.346 0l41.598-23.78a1.348 1.348 0 000-2.312L83.31 56.167a5.392 5.392 0 00-5.346-.015z" style="isolation:isolate" fill="#e0e0e6" opacity=".171"/><path d="M78.01 56.23L36.536 79.9a1.348 1.348 0 000 2.311l64.576 37.284a5.392 5.392 0 005.331 0l41.474-23.71a1.348 1.348 0 000-2.312L83.341 56.23a5.392 5.392 0 00-5.331 0z" style="isolation:isolate" fill="#dbdbe2" opacity=".195"/><path d="M78.056 56.23l-41.35 23.64a1.34 1.34 0 000 2.311l64.368 37.215a5.338 5.338 0 005.315 0l41.35-23.634a1.34 1.34 0 000-2.31L83.373 56.228a5.338 5.338 0 00-5.315 0z" style="isolation:isolate" fill="#d7d7de" opacity=".22"/><path d="M78.095 56.275L36.883 79.84a1.34 1.34 0 000 2.311l64.175 37.053a5.315 5.315 0 005.3 0l41.22-23.564a1.34 1.34 0 000-2.31L83.395 56.282a5.315 5.315 0 00-5.3-.008z" style="isolation:isolate" fill="#d3d2db" opacity=".244"/><path d="M78.141 56.313L37.052 79.801a1.333 1.333 0 000 2.311l63.937 36.937a5.3 5.3 0 005.284 0l41.09-23.487a1.333 1.333 0 000-2.311L83.426 56.313a5.3 5.3 0 00-5.285 0z" style="isolation:isolate" fill="#ceced7" opacity=".268"/><path d="M78.187 56.352L37.23 79.77a1.333 1.333 0 000 2.311l63.776 36.822a5.284 5.284 0 005.26 0l40.951-23.387a1.333 1.333 0 000-2.311L83.45 56.368a5.284 5.284 0 00-5.262-.016z" style="isolation:isolate" fill="#cacad4" opacity=".293"/><path d="M78.234 56.39L37.406 79.733a1.325 1.325 0 000 2.31l63.575 36.707a5.27 5.27 0 005.246 0l40.828-23.341a1.325 1.325 0 000-2.311L83.48 56.407a5.269 5.269 0 00-5.246-.016z" style="isolation:isolate" fill="#c5c5d0" opacity=".317"/><path d="M78.272 56.43L37.576 79.7a1.317 1.317 0 000 2.312l63.367 36.59a5.254 5.254 0 005.23 0l40.704-23.264a1.317 1.317 0 000-2.31L83.503 56.444a5.254 5.254 0 00-5.23-.016z" style="isolation:isolate" fill="#c1c1cc" opacity=".341"/><path d="M78.357 56.468L37.745 79.662a1.317 1.317 0 000 2.311l63.167 36.468a5.238 5.238 0 005.215 0L146.7 95.246a1.317 1.317 0 000-2.311L83.534 56.468a5.238 5.238 0 00-5.177 0z" style="isolation:isolate" fill="#bcbcc9" opacity=".366"/><path d="M78.357 56.514l-40.442 23.11a1.31 1.31 0 000 2.31l62.966 36.352a5.215 5.215 0 005.2 0l40.442-23.11a1.31 1.31 0 000-2.31L83.564 56.521a5.215 5.215 0 00-5.207-.008z" style="isolation:isolate" fill="#b8b8c5" opacity=".39"/><path d="M78.41 56.553l-40.318 23.04a1.31 1.31 0 000 2.273l62.766 36.205a5.2 5.2 0 005.184 0l40.312-23.048a1.31 1.31 0 000-2.272L83.587 56.545a5.2 5.2 0 00-5.176.008z" style="isolation:isolate" fill="#b3b3c1" opacity=".415"/><path d="M78.45 56.591L38.3 79.562a1.302 1.302 0 000 2.265l62.566 36.12a5.184 5.184 0 005.169 0l40.11-22.963a1.302 1.302 0 000-2.265L83.619 56.6a5.184 5.184 0 00-5.169-.008z" style="isolation:isolate" fill="#afafbe" opacity=".439"/><path d="M78.496 56.63L38.439 79.523a1.302 1.302 0 000 2.258l62.396 36.005a5.169 5.169 0 005.146 0l40.057-22.895a1.302 1.302 0 000-2.257L83.64 56.63a5.169 5.169 0 00-5.145 0z" style="isolation:isolate" fill="#aaaaba" opacity=".463"/><path d="M78.542 56.668L38.616 79.493a1.294 1.294 0 000 2.25l62.157 35.881a5.154 5.154 0 005.13 0l39.927-22.825a1.294 1.294 0 000-2.249L83.672 56.676a5.154 5.154 0 00-5.13-.008z" style="isolation:isolate" fill="#a6a6b7" opacity=".488"/><path d="M78.588 56.707L38.793 79.454a1.294 1.294 0 000 2.242l61.95 35.774a5.138 5.138 0 005.115 0l39.795-22.725a1.294 1.294 0 000-2.241l-61.95-35.782a5.138 5.138 0 00-5.115-.015z" style="isolation:isolate" fill="#a2a2b3" opacity=".512"/><path d="M78.627 56.745L38.962 79.423a1.286 1.286 0 000 2.234l61.734 35.651a5.115 5.115 0 005.1 0L145.46 94.63a1.286 1.286 0 000-2.234L83.75 56.76a5.115 5.115 0 00-5.123-.016z" style="isolation:isolate" fill="#9d9daf" opacity=".537"/><path d="M78.673 56.783L39.14 79.385a1.286 1.286 0 000 2.226l61.557 35.543a5.1 5.1 0 005.084 0l39.533-22.601a1.286 1.286 0 000-2.227L83.749 56.8a5.1 5.1 0 00-5.076-.016z" style="isolation:isolate" fill="#9999ac" opacity=".561"/><path d="M78.719 56.822L39.309 79.34a1.279 1.279 0 000 2.218l61.356 35.435a5.084 5.084 0 005.069 0l39.41-22.524a1.279 1.279 0 000-2.219L83.749 56.838a5.084 5.084 0 00-5.03-.016z" style="isolation:isolate" fill="#9494a8" opacity=".585"/><path d="M78.765 56.868l-39.279 22.47a1.271 1.271 0 000 2.211l61.157 35.312a5.069 5.069 0 005.045 0l39.287-22.455a1.271 1.271 0 000-2.21L83.81 56.875a5.069 5.069 0 00-5.046-.008z" style="isolation:isolate" fill="#9090a5" opacity=".61"/><path d="M78.804 56.907L39.656 79.285a1.271 1.271 0 000 2.203l60.956 35.188a5.053 5.053 0 005.03 0L144.79 94.3a1.271 1.271 0 000-2.204l-60.948-35.18a5.053 5.053 0 00-5.038-.008z" style="isolation:isolate" fill="#8b8ba1" opacity=".634"/><path d="M78.85 56.945L39.84 79.246a1.263 1.263 0 000 2.196l60.756 35.073a5.038 5.038 0 005.015 0l39.017-22.34a1.263 1.263 0 000-2.195L83.865 56.953a5.038 5.038 0 00-5.015-.008z" style="isolation:isolate" fill="#87879d" opacity=".659"/><path d="M78.896 57L40.002 79.215a1.263 1.263 0 000 2.187l60.548 34.958a5.015 5.015 0 005 0l38.893-22.232a1.263 1.263 0 000-2.188L83.896 57a5.015 5.015 0 00-5 0z" style="isolation:isolate" fill="#82829a" opacity=".683"/><path d="M78.942 57L40.18 79.176a1.256 1.256 0 000 2.18l60.347 34.842a5 5 0 004.984 0l38.763-22.155a1.256 1.256 0 000-2.18L83.919 57a5 5 0 00-4.977 0z" style="isolation:isolate" fill="#7e7e96" opacity=".707"/><path d="M78.98 57.061L40.35 79.146a1.256 1.256 0 000 2.172l60.147 34.727a4.984 4.984 0 004.969 0l38.631-22.07a1.256 1.256 0 000-2.172L83.95 57.076a4.984 4.984 0 00-4.97-.015z" style="isolation:isolate" fill="#7a7992" opacity=".732"/><path d="M79.027 57.1L40.511 79.108a1.248 1.248 0 000 2.164l59.954 34.619a4.969 4.969 0 004.946 0l38.516-22.008a1.248 1.248 0 000-2.165L83.98 57.115a4.969 4.969 0 00-4.953-.016z" style="isolation:isolate" fill="#75758f" opacity=".756"/><path d="M79.073 57.138L40.696 79.077a1.248 1.248 0 000 2.157l59.746 34.495a4.953 4.953 0 004.93 0l38.37-21.939a1.248 1.248 0 000-2.157l-59.739-34.48a4.953 4.953 0 00-4.93-.015z" style="isolation:isolate" fill="#71718b" opacity=".78"/><path d="M79.127 57.177L40.873 79.038a1.24 1.24 0 000 2.15l59.538 34.356a4.938 4.938 0 004.915 0l38.247-21.862a1.24 1.24 0 000-2.149L84.034 57.192a4.938 4.938 0 00-4.907-.015z" style="isolation:isolate" fill="#6c6c88" opacity=".805"/><path d="M79.127 57.223L41.05 79.008a1.24 1.24 0 000 2.141l59.315 34.264a4.915 4.915 0 004.9 0l38.115-21.785a1.24 1.24 0 000-2.141L84.057 57.23a4.915 4.915 0 00-4.93-.007z" style="isolation:isolate" fill="#686884" opacity=".829"/><path d="M79.204 57.261L41.22 78.97a1.232 1.232 0 000 2.142l59.138 34.148a4.9 4.9 0 004.884 0l37.984-21.716a1.232 1.232 0 000-2.141L84.088 57.269a4.9 4.9 0 00-4.884-.008z" style="isolation:isolate" fill="#636380" opacity=".854"/><path d="M79.25 57.3L41.382 78.938a1.225 1.225 0 000 2.134l58.938 34.033a4.884 4.884 0 004.868 0l37.877-21.638a1.225 1.225 0 000-2.134L84.12 57.307a4.884 4.884 0 00-4.868-.007z" style="isolation:isolate" fill="#5f5f7d" opacity=".878"/><path d="M79.297 57.338L41.55 78.908a1.225 1.225 0 000 2.125l58.737 33.895a4.869 4.869 0 004.853 0l37.746-21.57a1.225 1.225 0 000-2.125L84.15 57.338a4.869 4.869 0 00-4.853 0z" style="isolation:isolate" fill="#5a5a79" opacity=".902"/><path d="M79.335 57.377L41.743 78.869a1.217 1.217 0 000 2.118l58.545 33.794a4.853 4.853 0 004.83 0l37.6-21.492a1.217 1.217 0 000-2.118L84.173 57.377a4.853 4.853 0 00-4.838 0z" style="isolation:isolate" fill="#565676" opacity=".927"/><path d="M79.381 57.415L41.913 78.838a1.217 1.217 0 000 2.11l58.337 33.68a4.838 4.838 0 004.814 0l37.469-21.423a1.217 1.217 0 000-2.111L84.196 57.43a4.838 4.838 0 00-4.815-.016z" style="isolation:isolate" fill="#525172" opacity=".951"/><path d="M79.428 57.453L42.09 78.8a1.21 1.21 0 000 2.103l58.129 33.563a4.814 4.814 0 004.799 0l37.337-21.346a1.21 1.21 0 000-2.103L84.228 57.469a4.814 4.814 0 00-4.8-.016z" style="isolation:isolate" fill="#4d4d6e" opacity=".976"/><path fill="#49486b" d="M79.474 57.492l-37.207 21.27a1.21 1.21 0 000 2.094l57.92 33.456a4.8 4.8 0 004.785 0l37.206-21.269a1.21 1.21 0 000-2.095l-57.92-33.44a4.8 4.8 0 00-4.784-.016z" data-name="6737871d-dbdc-47e3-8518-2e21181ee376"/><path fill="url(#f)" d="M147.676 40.697L83.44 3.63a1.302 1.302 0 00-1.949 1.125v48.392a2.827 2.827 0 001.417 2.45l64.207 37.067a1.302 1.302 0 001.949-1.124V43.147a2.827 2.827 0 00-1.387-2.45z" data-name="6180c3f5-c4d3-4f68-9a0e-e17ab9d67d95" transform="translate(.01 -3.457)"/><path fill="#49486b" d="M146.823 37.795L82.617.727a1.302 1.302 0 00-1.95 1.125v48.384a2.827 2.827 0 001.418 2.45l64.207 37.067a1.302 1.302 0 001.949-1.124V40.245a2.827 2.827 0 00-1.418-2.45z" data-name="d2023f8b-9eba-4fbf-aa88-f4b18f5f7b85"/><path fill="#fff" d="M144.435 40.853L84.011 5.765v44.263l60.424 35.088V40.853z" data-name="a4bd9804-79c2-4b09-afc2-b1b39a21d883"/><path fill="url(#g)" d="M78.054 58.476l-41.12 21.685s-.223 3.212.655 3.72l62.997 36.368a5.223 5.223 0 005.2 0l40.458-23.11c1.671-1.04.662-3.721.662-3.721L83.254 58.484a5.223 5.223 0 00-5.2-.008z" data-name="c014855b-e36a-4d09-a8a2-355e8cbd5594" transform="translate(.01 -3.457)"/><path fill="#f7f7f7" d="M78.064 52.532l-40.457 23.11a1.31 1.31 0 000 2.31l62.997 36.368a5.223 5.223 0 005.2 0l40.457-23.11a1.31 1.31 0 000-2.311l-62.997-36.36a5.223 5.223 0 00-5.2-.007z" data-name="808c86a7-6d4e-43c3-9f94-92f6b00bc511"/><path fill="#e5e9f4" d="M74.505 82.482l-10.692 6.1a.347.347 0 000 .602l16.6 9.583a1.379 1.379 0 001.372 0l10.661-6.094a.347.347 0 000-.6l-16.6-9.591a1.379 1.379 0 00-1.34 0z" data-name="985edd17-ccaf-4de6-b13b-9d74cff38557"/><path fill="#d4daed" d="M82.524 56.06l3.49 2.01a.208.208 0 010 .362l-1.733.994a.447.447 0 01-.447 0l-3.482-2.01a.208.208 0 010-.363l1.733-.993a.447.447 0 01.44 0z" data-name="a39f27a7-f4f3-4eff-b784-28c53e04acf7"/><path fill="#d4daed" d="M87.6 59.102l3.49 2.011a.208.208 0 010 .362l-1.733.994a.447.447 0 01-.447 0l-3.49-2.01a.208.208 0 010-.363l1.733-.993a.447.447 0 01.448 0z" data-name="39f810b7-128f-4122-8f24-f481ef95c9b4"/><path fill="#d4daed" d="M92.754 61.983l3.49 2.011a.208.208 0 010 .362l-1.71 1.002a.447.447 0 01-.447 0l-3.481-2.011a.208.208 0 010-.362l1.733-.994a.447.447 0 01.415-.008z" data-name="8df05768-637c-443a-a629-3810d699ebb3"/><path fill="#d4daed" d="M98.039 64.965l3.49 2.01a.208.208 0 010 .362l-1.733.994a.447.447 0 01-.447 0l-3.49-2.01a.208.208 0 010-.363l1.756-.993a.447.447 0 01.424 0z" data-name="8a843231-5672-4a25-81d3-6800493ab82c"/><path fill="#d4daed" d="M103.115 67.784l3.49 2.01a.208.208 0 010 .363l-1.733.993a.447.447 0 01-.447 0l-3.497-2.003a.208.208 0 010-.362l1.733-1.001a.447.447 0 01.454 0z" data-name="8238f20d-6be5-4def-9102-5d450141d1b9"/><path fill="#d4daed" d="M108.045 70.865l3.49 2.01a.208.208 0 010 .363l-1.733.994a.447.447 0 01-.447 0l-3.49-2.011a.208.208 0 010-.362l1.764-.994a.447.447 0 01.416 0z" data-name="e771145f-2e80-47c6-ab6a-26e178553eb5"/><path fill="#d4daed" d="M113.206 73.677l3.49 2.01a.208.208 0 010 .363l-1.733.978a.447.447 0 01-.447 0l-3.49-2.01a.208.208 0 010-.363l1.734-.993a.447.447 0 01.446.015z" data-name="5e5cf13e-25aa-4242-b9a9-b825a0176e86"/><path fill="#d4daed" d="M118.298 76.712l3.49 2.01a.208.208 0 010 .363l-1.74 1.024a.447.447 0 01-.447 0l-3.498-2.041a.208.208 0 010-.362l1.734-.994a.447.447 0 01.461 0z" data-name="d4536420-d6d7-4479-b046-0bef4d0e187a"/><path fill="#d4daed" d="M123.298 79.662l3.482 2.011a.208.208 0 010 .362l-1.733.994a.447.447 0 01-.447 0l-3.49-2.01a.208.208 0 010-.362l1.733-.994a.447.447 0 01.455 0z" data-name="8f3f2580-ceee-40f0-bf9f-dd25f690b865"/><path fill="#d4daed" d="M128.574 82.697l3.49 2.011a.208.208 0 010 .362l-1.733.994a.447.447 0 01-.447 0l-3.49-2.01a.208.208 0 010-.363l1.734-.994a.447.447 0 01.446 0z" data-name="ae94cd3d-09e0-4dac-8fa7-897ca26612da"/><path fill="#d4daed" d="M133.697 85.57l3.49 2.011a.208.208 0 010 .362l-1.733.994a.447.447 0 01-.447 0l-3.497-2.01a.208.208 0 010-.362l1.733-.994a.447.447 0 01.454 0z" data-name="e1c4569b-ddf8-4c00-9c63-679ba872f749"/><g fill="#d4daed" data-name="f76bcf04-d8f9-4c8c-a992-fbf8a9eb7efc"><path d="M75.43 59.857l2.365-1.386a.986.986 0 01.994 0l2.31 1.332a.493.493 0 010 .848l-2.31 1.41a.986.986 0 01-1.01 0l-2.365-1.364a.493.493 0 01.016-.84z" data-name="53e09ef5-7f35-4c91-b4be-de254a1f5e0e"/><path d="M80.722 62.9l2.365-1.387a.986.986 0 01.993 0l2.311 1.333a.493.493 0 010 .848l-2.31 1.41a.986.986 0 01-1.01 0l-2.365-1.364a.493.493 0 01.016-.84z" data-name="d1157c93-cb51-4ba7-8b29-09372cd28eaa"/><path d="M85.852 65.781l2.365-1.386a.986.986 0 01.994 0l2.31 1.332a.493.493 0 010 .848l-2.31 1.41a.986.986 0 01-1.01 0l-2.341-1.356a.493.493 0 01-.008-.848z" data-name="bb065071-242e-4841-b4d6-545d72d67913"/><path d="M91.314 68.755l2.365-1.387a.986.986 0 01.993 0l2.311 1.333a.493.493 0 010 .847l-2.31 1.41a.986.986 0 01-1.01 0l-2.365-1.363a.493.493 0 01.016-.84z" data-name="926cc91a-7e18-419f-87f4-de75c317c0fa"/><path d="M96.128 71.582l2.365-1.387a.986.986 0 01.994 0l2.31 1.333a.493.493 0 010 .847l-2.31 1.41a.986.986 0 01-1.01 0l-2.349-1.379a.493.493 0 010-.824z" data-name="4ab6dcc7-d1eb-4bc1-aadb-7527b6f9a7d9"/><path d="M101.02 74.609l2.365-1.387a.986.986 0 01.994 0l2.31 1.333a.493.493 0 010 .848l-2.31 1.41a.986.986 0 01-1.01 0l-2.35-1.326a.493.493 0 010-.878z" data-name="57e72b86-82f9-466e-b8d1-a60c1fce7c1c"/><path d="M106.243 77.475l2.365-1.387a.986.986 0 01.993 0l2.311 1.333a.493.493 0 010 .847l-2.31 1.41a.986.986 0 01-1.01 0l-2.365-1.363a.493.493 0 01.016-.84z" data-name="fd32d5fc-1433-4299-b231-4441fd57f46e"/><path d="M111.35 80.371l2.365-1.386a.986.986 0 01.994 0l2.31 1.332a.493.493 0 010 .848l-2.31 1.41a.986.986 0 01-1.01 0l-2.364-1.364a.493.493 0 01.015-.84z" data-name="dee3147e-3ce5-413b-8d98-b9a71dd25375"/><path d="M116.38 83.452l2.365-1.386a.986.986 0 01.994 0l2.31 1.333a.493.493 0 010 .847l-2.31 1.41a.986.986 0 01-1.01 0l-2.364-1.364a.493.493 0 01.015-.84z" data-name="893adb3b-8b22-42a0-b39f-b8fe119276bf"/><path d="M121.857 86.68l2.365-1.387a.986.986 0 01.994 0l2.31 1.333a.493.493 0 010 .848l-2.31 1.41a.986.986 0 01-1.01 0l-2.364-1.364a.493.493 0 01.015-.84z" data-name="a4d9cff1-eb0b-4c96-9e1c-198e4eea46ff"/><path d="M126.81 89.353l2.365-1.386a.986.986 0 01.993 0l2.311 1.333a.493.493 0 010 .847l-2.31 1.41a.986.986 0 01-1.01 0l-2.364-1.364a.493.493 0 01.015-.84z" data-name="d68ec40c-f8a7-4331-ad09-86f78154e987"/></g><g fill="#d4daed" data-name="a2bdc0b6-372a-4a29-a920-9d491128efc1"><path d="M70.168 62.715l2.365-1.386a.986.986 0 01.994 0l2.31 1.332a.493.493 0 010 .848l-2.31 1.41a.986.986 0 01-1.01 0l-2.364-1.364a.493.493 0 01.015-.84z" data-name="872c442c-d672-4228-b687-329a87dd457b"/><path d="M75.46 65.758l2.365-1.387a.986.986 0 01.994 0l2.311 1.333a.493.493 0 010 .848l-2.31 1.41a.986.986 0 01-1.01 0l-2.365-1.364a.493.493 0 01.015-.84z" data-name="16d9ff6b-fef1-4481-baed-749efc48b73c"/><path d="M80.59 68.639l2.389-1.379a.986.986 0 01.994 0l2.31 1.333a.493.493 0 010 .847l-2.31 1.41a.986.986 0 01-.994.016l-2.365-1.364a.493.493 0 01-.023-.863z" data-name="ced7c7cc-5bfc-44d5-b6e8-48585576002e"/><path d="M86.06 71.636l2.365-1.387a.986.986 0 01.994 0l2.31 1.333a.493.493 0 010 .847l-2.31 1.41a.986.986 0 01-1.01 0l-2.35-1.371a.493.493 0 010-.833z" data-name="9c0fa6a2-293e-414b-944a-a20ede1732dc"/><path d="M90.867 74.44l2.365-1.387a.986.986 0 01.994 0l2.31 1.333a.493.493 0 010 .848l-2.31 1.41a.986.986 0 01-1.01 0l-2.364-1.364a.493.493 0 01.015-.84z" data-name="a2aa73b5-0434-458a-b42a-4256bdcc7866"/><path d="M95.75 77.467l2.366-1.387a.986.986 0 01.993 0l2.311 1.333a.493.493 0 010 .847l-2.31 1.41a.986.986 0 01-1.01 0l-2.365-1.363a.493.493 0 01.016-.84z" data-name="84f67e81-0c32-4cb7-bceb-47c7961b1602"/><path d="M100.981 80.333l2.365-1.387a.986.986 0 01.994 0l2.311 1.333a.493.493 0 010 .847l-2.311 1.41a.986.986 0 01-1.01 0l-2.364-1.363a.493.493 0 01.015-.84z" data-name="17a31329-3bcf-4645-b0b2-25b21b722d7b"/><path d="M106.089 83.229l2.365-1.387a.986.986 0 01.993 0l2.311 1.333a.493.493 0 010 .848l-2.31 1.41a.986.986 0 01-1.01 0l-2.35-1.349a.493.493 0 010-.855z" data-name="166a277d-2a60-4a8e-8f21-caaf70c0c62a"/><path d="M111.119 86.318l2.365-1.387a.986.986 0 01.993 0l2.311 1.333a.493.493 0 010 .848l-2.31 1.41a.986.986 0 01-1.01 0l-2.365-1.364a.493.493 0 01.016-.84z" data-name="df7f22dd-edf5-4802-87b6-2a562856b329"/><path d="M116.596 89.538l2.365-1.387a.986.986 0 01.994 0l2.31 1.333a.493.493 0 010 .847l-2.31 1.41a.986.986 0 01-1.01 0l-2.365-1.363a.493.493 0 01.016-.84z" data-name="74717123-eba5-4698-afc0-b1e49f60f4ad"/><path d="M121.55 92.226l2.364-1.386a.986.986 0 01.994 0l2.31 1.333a.493.493 0 010 .847l-2.31 1.41a.986.986 0 01-1.01 0l-2.364-1.364a.493.493 0 01.015-.84z" data-name="0ef4a843-4b3b-467f-b731-4f41041c680e"/></g><g fill="#d4daed" data-name="221eed73-c01a-4391-9fec-6d64508efec8"><path d="M64.907 65.58l2.365-1.386a.986.986 0 01.994 0l2.31 1.333a.493.493 0 010 .847l-2.31 1.41a.986.986 0 01-1.01 0l-2.364-1.363a.493.493 0 01.015-.84z" data-name="57de5818-a729-4991-a399-451aa307e505"/><path d="M70.2 68.623l2.364-1.386a.986.986 0 01.994 0l2.31 1.333a.493.493 0 010 .847l-2.31 1.41a.986.986 0 01-1.01 0l-2.364-1.364a.493.493 0 01.015-.84z" data-name="0aae3655-3889-421d-80c1-4cf85114af43"/><path d="M75.33 71.505l2.365-1.41a.986.986 0 01.994 0l2.31 1.332a.493.493 0 010 .848l-2.31 1.41a.986.986 0 01-1.01 0l-2.365-1.364a.493.493 0 01.016-.816z" data-name="2eac6431-cc80-4619-bd06-8de557fd00a8"/><path d="M80.791 74.478l2.365-1.386a.986.986 0 01.994 0l2.31 1.332a.493.493 0 010 .848l-2.31 1.41a.986.986 0 01-1.01 0l-2.364-1.364a.493.493 0 01.015-.84z" data-name="53436e9e-71a5-46ad-8f04-98b5c78dd7f8"/><path d="M85.606 77.305l2.365-1.386a.986.986 0 01.993 0l2.311 1.332a.493.493 0 010 .848l-2.31 1.41a.986.986 0 01-1.01 0l-2.365-1.364a.493.493 0 01.015-.84z" data-name="e154b1ef-4368-4f59-8bae-30e837ca552b"/><path d="M90.49 80.333l2.365-1.387a.986.986 0 01.994 0l2.31 1.333a.493.493 0 010 .847l-2.31 1.41a.986.986 0 01-1.01 0l-2.365-1.363a.493.493 0 01.016-.84z" data-name="39815eb4-cff6-45cc-9162-5b99f8ad5782"/><path d="M95.72 83.19l2.365-1.387a.986.986 0 01.994 0l2.31 1.333a.493.493 0 010 .848l-2.31 1.41a.986.986 0 01-1.01 0l-2.364-1.364a.493.493 0 01.015-.84z" data-name="45cb0851-9fc3-4e18-a412-cd36e2210a04"/><path d="M100.827 86.095l2.365-1.387a.986.986 0 01.994 0l2.31 1.333a.493.493 0 010 .847l-2.31 1.41a.986.986 0 01-1.01 0l-2.364-1.363a.493.493 0 01.015-.84z" data-name="cb882ebf-1f5e-433b-95dc-42505f5a45bb"/><path d="M105.858 89.176l2.364-1.387a.986.986 0 01.994 0l2.311 1.333a.493.493 0 010 .847l-2.31 1.41a.986.986 0 01-1.01 0l-2.365-1.363a.493.493 0 01.016-.84z" data-name="14b79bc0-91fb-4c03-89ea-282f64faa62c"/><path d="M111.335 92.434l2.364-1.386a.986.986 0 01.994 0l2.311 1.333a.493.493 0 010 .847l-2.31 1.41a.986.986 0 01-1.01 0l-2.365-1.364a.493.493 0 01.016-.84z" data-name="34334c44-72e7-459b-ac06-a51d150c1438"/><path d="M116.288 95.092l2.365-1.387a.986.986 0 01.993 0l2.311 1.333a.493.493 0 010 .848l-2.31 1.41a.986.986 0 01-1.01 0l-2.365-1.364a.493.493 0 01.016-.84z" data-name="f5c1cb14-cdfc-482d-81cd-5bc5b0470b87"/></g><g fill="#d4daed" data-name="d1c21a49-1fe6-49ee-9e70-33f77d8b20d6"><path d="M59.646 68.439l2.365-1.387a.986.986 0 01.993 0l2.311 1.333a.493.493 0 010 .847l-2.31 1.41a.986.986 0 01-1.01 0l-2.35-1.317a.493.493 0 010-.886z" data-name="13da8a7e-d13e-4212-9e58-fa3fc58a6c75"/><path d="M64.938 71.482l2.357-1.387a.986.986 0 01.994 0l2.31 1.333a.493.493 0 010 .847l-2.31 1.41a.986.986 0 01-1.01 0l-2.341-1.356a.493.493 0 010-.847z" data-name="d49fef7c-dde8-4ead-bbc1-62241cca19d4"/><path d="M70.068 74.363l2.365-1.387a.986.986 0 01.994 0l2.31 1.333a.493.493 0 010 .847l-2.31 1.41a.986.986 0 01-1.01 0l-2.364-1.363a.493.493 0 01.015-.84z" data-name="6aaaae46-9bb9-4c39-a4f0-ea1e3dfc0138"/><path d="M75.53 77.336l2.365-1.387a.986.986 0 01.994 0l2.31 1.333a.493.493 0 010 .848l-2.31 1.41a.986.986 0 01-1.01 0l-2.365-1.364a.493.493 0 01.016-.84z" data-name="8b86b2fa-939f-45e2-b139-735729b7617c"/><path d="M80.791 80.479l2.365-1.387a.986.986 0 01.994 0l12.01 6.933a.493.493 0 010 .848l-2.312 1.41a.986.986 0 01-1.009 0l-12.063-6.934a.493.493 0 01.015-.87z" data-name="feb97d2f-8e77-4d13-b7da-4bd61657c594"/><path d="M95.566 88.953l2.365-1.387a.986.986 0 01.994 0l2.31 1.333a.493.493 0 010 .847l-2.31 1.41a.986.986 0 01-1.01 0l-2.364-1.364a.493.493 0 01.015-.84z" data-name="12a4afb1-b383-4eff-a454-491dde9022f0"/><path d="M100.596 92.033l2.365-1.386a.986.986 0 01.994 0l2.31 1.332a.493.493 0 010 .848l-2.31 1.41a.986.986 0 01-1.01 0l-2.364-1.364a.493.493 0 01.015-.84z" data-name="223b337d-14ce-45f4-a34e-0c5f87d33705"/><path d="M106.089 95.262l2.365-1.387a.986.986 0 01.993 0l2.311 1.333a.493.493 0 010 .847l-2.31 1.41a.986.986 0 01-1.01 0l-2.35-1.348a.493.493 0 010-.855z" data-name="ea9ee4ca-fa32-4aaa-a895-a16fcc3b3c2a"/><path d="M111.026 97.95l2.365-1.379a.986.986 0 01.994 0l2.311 1.333a.493.493 0 010 .847l-2.311 1.41a.986.986 0 01-1.01 0l-2.364-1.363a.493.493 0 01.015-.848z" data-name="dca49a6e-f9c3-4527-8691-282a66f5528f"/></g><g data-name="5204d6eb-b557-4517-b7b6-0b69d80189e1"><g data-name="5a99b1ec-f664-416d-8a6e-e58f6e3227c3"><path fill="none" d="M36.132 43.9l-20.37 11.762a.86.86 0 000 1.49l20.37 11.762a1.733 1.733 0 001.733 0l20.37-11.762a.86.86 0 000-1.49L37.865 43.9a1.733 1.733 0 00-1.733 0z" data-name="682375fe-f343-426b-9348-3690b584b8ce"/><path fill="#fbfbfc" d="M36.132 43.935L15.82 55.662a.86.86 0 000 1.485L36.132 68.88a1.733 1.733 0 001.733 0l20.312-11.727a.86.86 0 000-1.485L37.865 43.935a1.733 1.733 0 00-1.733 0z" data-name="4a87f7d9-76b8-4182-9496-76dd1469ba41" style="isolation:isolate" opacity=".02"/><path fill="#f8f8f9" d="M36.132 43.97l-20.26 11.692a.855.855 0 000 1.485l20.26 11.699a1.733 1.733 0 001.733 0l20.26-11.693a.855.855 0 000-1.485L37.865 43.97a1.733 1.733 0 00-1.733 0z" data-name="97c78792-4430-44a6-8e9f-16db6fd31e55" style="isolation:isolate" opacity=".039"/><path fill="#f4f4f6" d="M36.132 44.004l-20.22 11.664a.855.855 0 000 1.479l20.22 11.664a1.733 1.733 0 001.733 0l20.22-11.664a.855.855 0 000-1.479l-20.22-11.664a1.733 1.733 0 00-1.733 0z" data-name="861eb512-7d40-44d0-aab9-14861034a351" style="isolation:isolate" opacity=".059"/><path fill="#f1f1f3" d="M36.132 44.039l-20.145 11.63a.85.85 0 000 1.472l20.145 11.635a1.733 1.733 0 001.733 0l20.144-11.629a.85.85 0 000-1.473L37.865 44.039a1.733 1.733 0 00-1.733 0z" data-name="a866c432-7484-4208-82d7-0d78c3f08f06" style="isolation:isolate" opacity=".078"/><path fill="#ededf0" d="M36.132 44.073l-20.087 11.6a.85.85 0 000 1.468l20.087 11.6a1.733 1.733 0 001.733 0l20.086-11.6a.85.85 0 000-1.468l-20.086-11.6a1.733 1.733 0 00-1.733 0z" data-name="4e06cbd2-a4b4-43dc-ba7c-1e553b736982" style="isolation:isolate" opacity=".098"/><path fill="#e9e9ed" d="M36.132 44.108L16.097 55.662a.843.843 0 000 1.468l20.035 11.553a1.733 1.733 0 001.733 0L57.899 57.13a.843.843 0 000-1.467L37.865 44.108a1.733 1.733 0 00-1.733 0z" data-name="c686209a-bdb8-43cc-afb4-812daa0095df" style="isolation:isolate" opacity=".118"/><path fill="#e6e6eb" d="M36.132 44.143L16.155 55.697a.843.843 0 000 1.462l19.977 11.554a1.733 1.733 0 001.733 0l19.977-11.554a.843.843 0 000-1.462L37.865 44.143a1.733 1.733 0 00-1.733 0z" data-name="ca7371a4-1c41-4a97-9ee9-656f5e4aca1b" style="isolation:isolate" opacity=".137"/><path fill="#e2e2e8" d="M36.132 44.195l-19.92 11.502a.843.843 0 000 1.456l19.92 11.485a1.733 1.733 0 001.704 0l19.919-11.502a.843.843 0 000-1.456l-19.89-11.485a1.733 1.733 0 00-1.733 0z" data-name="a96b7a3d-b141-49fe-bf48-5edf92c95cf3" style="isolation:isolate" opacity=".157"/><path fill="#dfdfe5" d="M36.132 44.195L16.27 55.662a.838.838 0 000 1.456l19.862 11.485a1.698 1.698 0 001.698 0l19.861-11.467a.838.838 0 000-1.456L37.865 44.195a1.698 1.698 0 00-1.733 0z" data-name="d7a8ba83-b231-4010-88e1-dd1cbe6b3b7c" style="isolation:isolate" opacity=".176"/><path fill="#dbdbe2" d="M36.132 44.247l-19.81 11.438a.838.838 0 000 1.45l19.81 11.433a1.693 1.693 0 001.692 0l19.81-11.438a.838.838 0 000-1.45l-19.77-11.433a1.693 1.693 0 00-1.732 0z" data-name="5cb95bcc-d921-4491-abb0-d58837b9556b" style="isolation:isolate" opacity=".196"/><path fill="#d8d8df" d="M36.132 44.282L16.38 55.686a.832.832 0 000 1.444l19.752 11.403a1.687 1.687 0 001.687 0l19.75-11.403a.832.832 0 000-1.445L37.837 44.282a1.687 1.687 0 00-1.704 0z" data-name="d84719f9-89f9-4a6b-bafb-c6d6db8ef5f9" style="isolation:isolate" opacity=".216"/><path fill="#d4d4dc" d="M36.132 44.316l-19.694 11.37a.832.832 0 000 1.438l19.694 11.375a1.681 1.681 0 001.68 0l19.695-11.37a.832.832 0 000-1.438L37.836 44.316a1.681 1.681 0 00-1.704 0z" data-name="e520bb66-ca92-482e-ae57-287d81f717bc" style="isolation:isolate" opacity=".235"/><path fill="#d0d0d9" d="M36.132 44.35L16.49 55.692a.832.832 0 000 1.439l19.642 11.328a1.675 1.675 0 001.675 0l19.642-11.34a.832.832 0 000-1.438L37.807 44.34a1.675 1.675 0 00-1.675.01z" data-name="b3f6814b-ecba-451e-903c-5ec63a495e7c" style="isolation:isolate" opacity=".255"/><path fill="#cdcdd6" d="M36.132 44.386L16.548 55.69a.826.826 0 000 1.433l19.584 11.334a1.675 1.675 0 001.675 0L57.39 57.153a.826.826 0 000-1.433L37.807 44.414a1.675 1.675 0 00-1.675-.028z" data-name="aee4734e-7ff0-4b1f-9895-9f7ef269c63b" style="isolation:isolate" opacity=".275"/><path fill="#c9c9d3" d="M36.132 44.42L16.605 55.691a.826.826 0 000 1.427l19.527 11.277a1.67 1.67 0 001.67 0l19.526-11.271a.826.826 0 000-1.427L37.8 44.426a1.67 1.67 0 00-1.67-.006z" data-name="aed88820-17a4-4d3f-8ffb-04bd241d6666" style="isolation:isolate" opacity=".294"/><path fill="#c6c6d0" d="M36.132 44.455L16.663 55.697a.82.82 0 000 1.427L36.132 68.36a1.664 1.664 0 001.663 0l19.469-11.242a.82.82 0 000-1.427L37.795 44.45a1.664 1.664 0 00-1.663.006z" data-name="6cdc0745-c630-470d-bae9-21340aa0b9c4" style="isolation:isolate" opacity=".314"/><path fill="#c2c2cd" d="M36.16 44.49L16.744 55.697a.82.82 0 000 1.421L36.16 68.326a1.658 1.658 0 001.659 0l19.416-11.208a.82.82 0 000-1.42L37.819 44.49a1.658 1.658 0 00-1.659 0z" data-name="536a35ca-0ebf-499f-b29b-03f27d2170d2" style="isolation:isolate" opacity=".333"/><path fill="#bebeca" d="M36.166 44.524L16.807 55.703a.82.82 0 000 1.415l19.36 11.179a1.652 1.652 0 001.651 0l19.36-11.179a.82.82 0 000-1.415l-19.36-11.179a1.652 1.652 0 00-1.652 0z" data-name="dbd30ba1-721a-42ff-ad7e-00731694743d" style="isolation:isolate" opacity=".353"/><path fill="#bbbbc7" d="M36.166 44.559l-19.3 11.144a.815.815 0 000 1.41l19.3 11.144a1.646 1.646 0 001.647 0l19.3-11.145a.815.815 0 000-1.41L37.82 44.56a1.646 1.646 0 00-1.653 0z" data-name="96506a4d-8135-45c9-a42e-09bd12a34ae6" style="isolation:isolate" opacity=".373"/><path fill="#b7b7c5" d="M36.172 44.593l-19.243 11.11a.815.815 0 000 1.41l19.243 11.109a1.646 1.646 0 001.647 0l19.243-11.11a.815.815 0 000-1.41l-19.25-11.109a1.646 1.646 0 00-1.64 0z" data-name="d46ba0d1-af59-44f2-a1f1-d6f19ff523ad" style="isolation:isolate" opacity=".392"/><path fill="#b4b4c2" d="M36.172 44.628l-19.191 11.08a.809.809 0 000 1.404l19.191 11.08a1.64 1.64 0 001.64 0l19.192-11.08a.809.809 0 000-1.404l-19.191-11.08a1.64 1.64 0 00-1.641 0z" data-name="992a8e24-00ad-41e2-ba09-58e59e06bd95" style="isolation:isolate" opacity=".412"/><path fill="#b0b0bf" d="M36.172 44.663L17.067 55.71a.809.809 0 000 1.398l19.134 11.045a1.635 1.635 0 001.635 0l19.093-11.045a.809.809 0 000-1.398L37.807 44.663a1.635 1.635 0 00-1.635 0z" data-name="e4805796-8782-44db-bb91-89d22370710d" style="isolation:isolate" opacity=".431"/><path fill="#acacbc" d="M36.178 44.698l-19.064 11.01a.803.803 0 000 1.399l19.064 11.01a1.63 1.63 0 001.629 0l19.064-11.01a.803.803 0 000-1.398L37.807 44.698a1.63 1.63 0 00-1.63 0z" data-name="fa7108f2-b82a-4927-b247-9e14eab20ac3" style="isolation:isolate" opacity=".451"/><path fill="#a9a9b9" d="M36.178 44.732L17.16 55.71a.803.803 0 000 1.392l19.018 10.976a1.623 1.623 0 001.623 0L56.82 57.101a.803.803 0 000-1.392L37.801 44.732a1.623 1.623 0 00-1.623 0z" data-name="d1cee703-17d1-43cb-807c-6a616f52ced8" style="isolation:isolate" opacity=".471"/><path fill="#a5a5b6" d="M36.184 44.773L17.218 55.749a.803.803 0 000 1.386l18.966 10.977a1.618 1.618 0 001.617 0l18.966-10.977a.803.803 0 000-1.386L37.801 44.773a1.618 1.618 0 00-1.617 0z" data-name="3e38730c-188f-4186-b81a-5b9bcef6c828" style="isolation:isolate" opacity=".49"/><path fill="#a2a2b3" d="M36.184 44.773L17.275 55.69a.797.797 0 000 1.38l18.909 10.92a1.618 1.618 0 001.617 0L56.71 57.072a.797.797 0 000-1.38l-18.908-10.92a1.618 1.618 0 00-1.617 0z" data-name="475affd7-bc85-4c91-b751-816f6dced453" style="isolation:isolate" opacity=".51"/><path fill="#9e9eb0" d="M36.19 44.836L17.338 55.72a.797.797 0 000 1.38l18.85 10.885a1.612 1.612 0 001.612 0L56.65 57.1a.797.797 0 000-1.38L37.795 44.835a1.612 1.612 0 00-1.606 0z" data-name="30cf6e6c-0209-4034-89ff-1db17d464611" style="isolation:isolate" opacity=".529"/><path fill="#9b9bad" d="M36.19 44.87L17.396 55.72a.791.791 0 000 1.375l18.792 10.85a1.606 1.606 0 001.606 0l18.793-10.85a.791.791 0 000-1.375L37.795 44.87a1.606 1.606 0 00-1.606 0z" data-name="706bb3f5-3a78-4e28-9fc0-4738b899ae3b" style="isolation:isolate" opacity=".549"/><path fill="#9797aa" d="M36.19 44.905L17.454 55.75a.791.791 0 000 1.37l18.74 10.82a1.6 1.6 0 001.6 0l18.74-10.82a.791.791 0 000-1.37L37.79 44.905a1.6 1.6 0 00-1.6 0z" data-name="bf39457a-ab6f-4ddf-b445-49a24a19cd66" style="isolation:isolate" opacity=".569"/><path fill="#9393a7" d="M36.195 44.94L17.512 55.75a.791.791 0 000 1.37l18.683 10.76a1.595 1.595 0 001.595 0l18.683-10.786a.791.791 0 000-1.37L37.79 44.94a1.595 1.595 0 00-1.595 0z" data-name="96259f15-f171-48d8-aced-30bd1a6fc54b" style="isolation:isolate" opacity=".588"/><path fill="#9090a4" d="M36.195 44.975L17.57 55.749a.786.786 0 000 1.363L36.195 67.87a1.589 1.589 0 001.589 0l18.625-10.757a.786.786 0 000-1.363l-18.62-10.774a1.589 1.589 0 00-1.594 0z" data-name="78c11f22-b6d5-4b6f-8aae-7c59e43f79ed" style="isolation:isolate" opacity=".608"/><path fill="#8c8ca2" d="M36.2 45.01L17.646 55.748a.786.786 0 000 1.358l18.573 10.722a1.589 1.589 0 001.589 0l18.544-10.74a.786.786 0 000-1.357L37.784 45.01a1.589 1.589 0 00-1.583 0z" data-name="e2f21508-d361-4ee5-a5b3-27dd2d12e825" style="isolation:isolate" opacity=".627"/><path fill="#89899f" d="M36.2 45.038L17.715 55.726a.78.78 0 000 1.352l18.487 10.687a1.583 1.583 0 001.583 0L56.27 57.078a.78.78 0 000-1.352L37.784 45.038a1.583 1.583 0 00-1.583 0z" data-name="cd97a4f2-eee9-4259-b57d-120fcbe8f9bb" style="isolation:isolate" opacity=".647"/><path fill="#85859c" d="M36.2 45.073L17.715 55.732a.78.78 0 000 1.351l18.487 10.66a1.577 1.577 0 001.577 0l18.487-10.66a.78.78 0 000-1.351L37.778 45.073a1.577 1.577 0 00-1.577 0z" data-name="1cb1763a-1f0d-46b4-8724-349485327a31" style="isolation:isolate" opacity=".667"/><path fill="#818199" d="M36.207 45.108l-18.4 10.641a.78.78 0 000 1.346l18.4 10.624a1.571 1.571 0 001.571 0l18.4-10.641a.78.78 0 000-1.346l-18.4-10.624a1.571 1.571 0 00-1.571 0z" data-name="f77300fa-1df0-400d-90b6-260d4f1bed0b" style="isolation:isolate" opacity=".686"/><path fill="#7e7e96" d="M36.207 45.142L17.865 55.75a.774.774 0 000 1.34l18.348 10.59a1.566 1.566 0 001.565 0L56.12 57.078a.774.774 0 000-1.34L37.778 45.142a1.566 1.566 0 00-1.571 0z" data-name="33b38d56-e009-4aa0-aa7d-bb0bc65b3d9f" style="isolation:isolate" opacity=".706"/><path fill="#7a7a93" d="M36.212 45.177L17.922 55.75a.774.774 0 000 1.34l18.29 10.56a1.56 1.56 0 001.56 0l18.29-10.572a.774.774 0 000-1.34l-18.29-10.56a1.56 1.56 0 00-1.56 0z" data-name="7f4070f5-e6a0-4b99-99d8-abb1efa7bfb6" style="isolation:isolate" opacity=".725"/><path fill="#777790" d="M36.212 45.212L17.98 55.749a.768.768 0 000 1.334L36.212 67.61a1.56 1.56 0 001.56 0l18.233-10.526a.768.768 0 000-1.334L37.772 45.212a1.56 1.56 0 00-1.56 0z" data-name="e6a6261f-9f61-4536-9c33-48c1027c59a8" style="isolation:isolate" opacity=".745"/><path fill="#73738d" d="M36.212 45.246L18.038 55.75a.768.768 0 000 1.329l18.174 10.497a1.554 1.554 0 001.554 0l18.175-10.497a.768.768 0 000-1.329L37.766 45.246a1.554 1.554 0 00-1.553 0z" data-name="69685a77-fdc6-4e9d-a22c-8cb34cb6b8d5" style="isolation:isolate" opacity=".765"/><path fill="#6f6f8a" d="M36.218 45.281L18.096 55.75a.763.763 0 000 1.323l18.122 10.462a1.548 1.548 0 001.548 0L55.89 57.072a.763.763 0 000-1.323L37.766 45.281a1.548 1.548 0 00-1.548 0z" data-name="b1c83a82-7117-4eaa-9ade-418b3c9a438e" style="isolation:isolate" opacity=".784"/><path fill="#6c6c87" d="M36.218 45.316L18.153 55.749a.763.763 0 000 1.323L36.219 67.5a1.542 1.542 0 001.543 0l18.065-10.428a.763.763 0 000-1.323L37.76 45.316a1.542 1.542 0 00-1.543 0z" data-name="bb14370b-d657-4567-bd97-7b6f31ee24ef" style="isolation:isolate" opacity=".804"/><path fill="#686884" d="M36.224 45.35l-18.001 10.4a.763.763 0 000 1.317L36.23 67.465a1.537 1.537 0 001.537 0l18.007-10.399a.763.763 0 000-1.317L37.76 45.35a1.537 1.537 0 00-1.537 0z" data-name="342fd704-cd59-4b7b-ae9c-2c39da7312fb" style="isolation:isolate" opacity=".824"/><path fill="#656581" d="M36.224 45.385l-17.95 10.364a.757.757 0 000 1.311l17.95 10.364a1.53 1.53 0 001.53 0l17.95-10.364a.757.757 0 000-1.311L37.761 45.385a1.53 1.53 0 00-1.537 0z" data-name="028fee19-1466-4bda-adcf-bcdc764318fd" style="isolation:isolate" opacity=".843"/><path fill="#61617e" d="M36.23 45.42L18.32 55.749a.757.757 0 000 1.311l17.91 10.33a1.53 1.53 0 001.53 0l17.91-10.33a.757.757 0 000-1.311l-17.91-10.33a1.53 1.53 0 00-1.53 0z" data-name="4638b0ca-d8a3-4dc0-a4dd-fae85a08b6f3" style="isolation:isolate" opacity=".863"/><path fill="#5e5e7c" d="M36.23 45.454L18.39 55.75a.751.751 0 000 1.306l17.84 10.3a1.525 1.525 0 001.524 0l17.84-10.3a.751.751 0 000-1.306l-17.84-10.295a1.525 1.525 0 00-1.524 0z" data-name="a88b65f5-c835-4c00-b6fe-3916d29debf4" style="isolation:isolate" opacity=".882"/><path fill="#5a5a79" d="M36.23 45.489l-17.782 10.26a.751.751 0 000 1.3L36.23 67.303a1.52 1.52 0 001.52 0l17.78-10.266a.751.751 0 000-1.3L37.75 45.49a1.52 1.52 0 00-1.52 0z" data-name="11b40e62-adf3-4886-837d-c6b8d1bee248" style="isolation:isolate" opacity=".902"/><path fill="#565676" d="M36.236 45.523L18.506 55.75a.751.751 0 000 1.294l17.73 10.26a1.514 1.514 0 001.514 0l17.723-10.237a.751.751 0 000-1.294l-17.724-10.25a1.514 1.514 0 00-1.513 0z" data-name="12c981eb-8057-48ee-ade0-1cf37df57061" style="isolation:isolate" opacity=".922"/><path fill="#535373" d="M36.236 45.558L18.564 55.75a.745.745 0 000 1.294l17.672 10.202a1.508 1.508 0 001.507 0l17.672-10.202a.745.745 0 000-1.294L37.75 45.56a1.508 1.508 0 00-1.513 0z" data-name="52c98d74-bb8e-42f1-b0c6-711ef528b662" style="isolation:isolate" opacity=".941"/><path fill="#4f4f70" d="M36.241 45.593L18.627 55.75a.745.745 0 000 1.288l17.614 10.168a1.508 1.508 0 001.508 0l17.614-10.168a.745.745 0 000-1.288L37.75 45.582a1.502 1.502 0 00-1.508.011z" data-name="0cb0c39d-6ef1-4bc5-8ad3-bb694ee42618" style="isolation:isolate" opacity=".961"/><path fill="#4c4c6d" d="M36.241 45.628L18.685 55.749a.74.74 0 000 1.282l17.556 10.14a1.502 1.502 0 001.502 0L55.3 57.03a.74.74 0 000-1.282l-17.557-10.12a1.502 1.502 0 00-1.502 0z" data-name="617092d5-55e0-4142-8db9-a485b75297e7" style="isolation:isolate" opacity=".98"/><path fill="#48486a" d="M36.241 45.662L18.743 55.75a.74.74 0 000 1.282l17.504 10.104a1.496 1.496 0 001.496 0l17.505-10.104a.74.74 0 000-1.282L37.743 45.645a1.496 1.496 0 00-1.502.017z" data-name="2e375ed7-dd97-4d1a-965a-cb53b49e74c7"/></g><path fill="url(#h)" d="M36.197 13.567L17.375 23.966V59.83a.416.416 0 00.208.364l18.614 10.762a1.577 1.577 0 001.577 0L56.34 60.193a.474.474 0 00.237-.41V23.967l-18.81-10.399a1.577 1.577 0 00-1.571 0z" data-name="264b5960-fba8-45c6-ae9f-0a0d761eeba5" transform="translate(.01 -3.457)"/><path fill="#ebedf7" d="M36.207 9.18L17.772 19.822a.78.78 0 000 1.346l18.435 10.641a1.577 1.577 0 001.577 0l18.434-10.641a.78.78 0 000-1.346L37.778 9.18a1.577 1.577 0 00-1.571 0z" data-name="99c2c213-3c85-4be4-b0ea-d4b71a51cfd2"/><path fill="url(#i)" d="M36.474 16.623L24.54 23.515a.503.503 0 000 .872l11.935 6.892a1.017 1.017 0 001.023 0l11.912-6.892a.503.503 0 000-.872l-11.92-6.892a1.017 1.017 0 00-1.017 0z" data-name="7a3500b9-d481-4e03-9949-454eb3273763" transform="translate(.01 -3.457)"/><path fill="#48486a" d="M49.419 20.37L37.5 27.262a1.022 1.022 0 01-1.023 0l-11.93-6.892a.497.497 0 01-.162-.156.503.503 0 00.133.699l.03.018 11.934 6.892a1.017 1.017 0 001.023 0l11.912-6.892a.503.503 0 00.18-.688l-.018-.028a.497.497 0 01-.161.155z" data-name="81199d43-bf1e-4b51-a803-76b95390d227"/><path fill="url(#d)" d="M36.618 18.24l-8.474 4.894a.358.358 0 000 .618l8.475 4.893a.722.722 0 00.722 0l8.474-4.893a.358.358 0 000-.618l-8.474-4.893a.722.722 0 00-.723 0z" data-name="b2130888-a9fe-41af-9c97-9ff66c041ad5" transform="translate(.01 -3.457)"/><path fill="url(#b)" d="M28.126 23.746l8.475-4.893a.722.722 0 01.722 0l8.475 4.893a.358.358 0 000-.606l-8.475-4.893a.722.722 0 00-.722 0l-8.475 4.893a.358.358 0 000 .607z" transform="translate(.01 -3.457)"/><g data-name="035d9d71-22e5-4f3b-9478-bc6f1d55f503" opacity=".5"><path fill="url(#a)" d="M36.618 18.24l-8.474 4.894a.358.358 0 000 .618l8.475 4.893a.722.722 0 00.722 0l8.474-4.893a.358.358 0 000-.618l-8.474-4.893a.722.722 0 00-.723 0z" data-name="8e2a49c9-96fd-4bf6-b832-34100a6c0efc" transform="translate(.01 -3.457)"/><path fill="url(#j)" d="M36.618 17.958l-8.474 4.893a.358.358 0 000 .618l8.475 4.893a.722.722 0 00.722 0l8.474-4.893a.358.358 0 000-.618l-8.469-4.893a.722.722 0 00-.727 0z" data-name="c2c6be04-4b5f-4f5f-911b-c74053f8f914" opacity=".98" transform="translate(.01 -3.457)" style="isolation:isolate"/><path fill="url(#k)" d="M36.618 17.669l-8.474 4.893a.358.358 0 000 .618l8.475 4.893a.722.722 0 00.722 0l8.474-4.893a.358.358 0 000-.618l-8.469-4.893a.722.722 0 00-.727 0z" data-name="480eceae-a906-4c0e-b478-df64339777ad" opacity=".961" transform="translate(.01 -3.457)" style="isolation:isolate"/><path fill="url(#l)" d="M36.618 17.386l-8.474 4.893a.358.358 0 000 .618l8.474 4.893a.722.722 0 00.723 0l8.474-4.893a.358.358 0 000-.618l-8.474-4.893a.722.722 0 00-.723 0z" data-name="1e52f482-965a-4da4-afaf-5e10acfb05e1" opacity=".941" transform="translate(.01 -3.457)" style="isolation:isolate"/><path fill="url(#m)" d="M36.618 17.097l-8.474 4.893a.358.358 0 000 .618l8.475 4.893a.722.722 0 00.722 0l8.474-4.893a.358.358 0 000-.618l-8.474-4.893a.722.722 0 00-.723 0z" data-name="8e816817-a58c-42e6-857d-5229429ed1c8" opacity=".922" transform="translate(.01 -3.457)" style="isolation:isolate"/><path fill="url(#n)" d="M36.618 16.814l-8.474 4.893a.358.358 0 000 .618l8.475 4.893a.722.722 0 00.722 0l8.474-4.893a.358.358 0 000-.618l-8.474-4.893a.722.722 0 00-.723 0z" data-name="e92bd004-a097-456c-817d-daf9317abbb6" opacity=".902" transform="translate(.01 -3.457)" style="isolation:isolate"/><path fill="url(#o)" d="M36.618 16.525l-8.474 4.893a.358.358 0 000 .618l8.475 4.893a.722.722 0 00.722 0l8.474-4.893a.358.358 0 000-.618l-8.474-4.893a.722.722 0 00-.723 0z" data-name="6447ee3b-7925-418a-acea-244541a33998" opacity=".882" transform="translate(.01 -3.457)" style="isolation:isolate"/><path fill="url(#p)" d="M36.618 16.242l-8.474 4.893a.358.358 0 000 .618l8.475 4.893a.722.722 0 00.722 0l8.474-4.893a.358.358 0 000-.618l-8.474-4.893a.722.722 0 00-.723 0z" data-name="35da07c1-50fa-48b7-a2f9-933735f4822d" opacity=".863" transform="translate(.01 -3.457)" style="isolation:isolate"/><path fill="url(#q)" d="M36.618 15.953l-8.474 4.893a.358.358 0 000 .618l8.475 4.893a.722.722 0 00.722 0l8.474-4.893a.358.358 0 000-.618l-8.474-4.893a.722.722 0 00-.723 0z" data-name="a478c20c-d4da-4828-ace3-469fc26c2f63" opacity=".843" transform="translate(.01 -3.457)" style="isolation:isolate"/><path fill="url(#r)" d="M36.618 15.67l-8.474 4.893a.358.358 0 000 .618l8.475 4.893a.722.722 0 00.722 0l8.474-4.893a.358.358 0 000-.618l-8.474-4.893a.722.722 0 00-.723 0z" data-name="323a9764-a087-4de3-9855-bdf608f93a28" opacity=".824" transform="translate(.01 -3.457)" style="isolation:isolate"/><path fill="url(#s)" d="M36.618 15.381l-8.474 4.893a.358.358 0 000 .618l8.475 4.893a.722.722 0 00.722 0l8.474-4.893a.358.358 0 000-.618l-8.474-4.893a.722.722 0 00-.723 0z" data-name="85c4c517-ab6d-4291-a446-03e65a14fdf4" opacity=".804" transform="translate(.01 -3.457)" style="isolation:isolate"/><path fill="url(#t)" d="M36.618 15.098l-8.474 4.893a.358.358 0 000 .618l8.475 4.893a.722.722 0 00.722 0l8.474-4.893a.358.358 0 000-.618l-8.474-4.893a.722.722 0 00-.723 0z" data-name="e68a0e9b-5143-4a0a-800d-f1f0c28fc831" opacity=".784" transform="translate(.01 -3.457)" style="isolation:isolate"/><path fill="url(#u)" d="M36.618 14.81l-8.474 4.892a.358.358 0 000 .618l8.475 4.893a.722.722 0 00.722 0l8.474-4.893a.358.358 0 000-.618l-8.474-4.893a.722.722 0 00-.723 0z" data-name="9c5b91be-b2f7-4711-acee-411b91717ee0" opacity=".765" transform="translate(.01 -3.457)" style="isolation:isolate"/><path fill="url(#v)" d="M36.618 14.526l-8.474 4.893a.358.358 0 000 .618l8.475 4.893a.722.722 0 00.722 0l8.474-4.893a.358.358 0 000-.618l-8.474-4.893a.722.722 0 00-.723 0z" data-name="bd518f8e-1c7f-4d8d-a54f-a2c5de7cc7e6" opacity=".745" transform="translate(.01 -3.457)" style="isolation:isolate"/><path fill="url(#w)" d="M36.618 14.237l-8.474 4.893a.358.358 0 000 .618l8.475 4.893a.722.722 0 00.722 0l8.474-4.893a.358.358 0 000-.618l-8.474-4.893a.722.722 0 00-.723 0z" data-name="a53c6e88-de10-4838-ac8e-b7e7c2dfe369" opacity=".725" transform="translate(.01 -3.457)" style="isolation:isolate"/><path fill="url(#x)" d="M36.618 13.954l-8.474 4.893a.358.358 0 000 .618l8.475 4.893a.722.722 0 00.722 0l8.474-4.893a.358.358 0 000-.618l-8.474-4.893a.722.722 0 00-.723 0z" data-name="81856756-3839-4617-ba5e-1d81413c5e56" opacity=".706" transform="translate(.01 -3.457)" style="isolation:isolate"/><path fill="url(#y)" d="M36.618 13.665l-8.474 4.894a.358.358 0 000 .618l8.474 4.893a.722.722 0 00.723 0l8.474-4.893a.358.358 0 000-.618l-8.474-4.893a.722.722 0 00-.723 0z" data-name="6f2bb6d9-15c4-4b7f-a384-89c23dc32469" opacity=".686" transform="translate(.01 -3.457)" style="isolation:isolate"/><path fill="url(#z)" d="M36.618 13.382l-8.474 4.893a.358.358 0 000 .619l8.475 4.893a.722.722 0 00.722 0l8.474-4.893a.358.358 0 000-.619l-8.474-4.893a.722.722 0 00-.723 0z" data-name="b0b94d68-778f-4c51-88ee-80883475f634" opacity=".667" transform="translate(.01 -3.457)" style="isolation:isolate"/><path fill="url(#A)" d="M36.618 13.093l-8.474 4.894a.358.358 0 000 .618l8.475 4.893a.722.722 0 00.722 0l8.474-4.893a.358.358 0 000-.619l-8.474-4.893a.722.722 0 00-.723 0z" data-name="f3d1704b-8565-4c5d-9aca-954b7fc792c4" opacity=".647" transform="translate(.01 -3.457)" style="isolation:isolate"/><path fill="url(#B)" d="M36.618 12.81l-8.474 4.893a.358.358 0 000 .618l8.475 4.893a.722.722 0 00.722 0l8.474-4.893a.358.358 0 000-.618l-8.474-4.893a.722.722 0 00-.723 0z" data-name="65bd1e9e-846b-44a0-b279-022359fa6e35" opacity=".627" transform="translate(.01 -3.457)" style="isolation:isolate"/><path fill="url(#C)" d="M36.618 12.521l-8.474 4.894a.358.358 0 000 .618l8.475 4.893a.722.722 0 00.722 0l8.474-4.893a.358.358 0 000-.618l-8.474-4.893a.722.722 0 00-.723 0z" data-name="cb6e2053-51ee-4ced-ad91-dd2f7bc78407" opacity=".608" transform="translate(.01 -3.457)" style="isolation:isolate"/><path fill="url(#D)" d="M36.618 12.238l-8.474 4.894a.358.358 0 000 .618l8.475 4.893a.722.722 0 00.722 0l8.474-4.893a.358.358 0 000-.618l-8.469-4.893a.722.722 0 00-.727 0z" data-name="ced5ac66-6267-4cbe-af16-3cf23acf93d2" opacity=".588" transform="translate(.01 -3.457)" style="isolation:isolate"/><path fill="url(#E)" d="M36.618 11.95l-8.474 4.893a.358.358 0 000 .618l8.475 4.893a.722.722 0 00.722 0l8.474-4.893a.358.358 0 000-.618l-8.469-4.893a.722.722 0 00-.727 0z" data-name="536dc066-0b54-4130-abcf-1d5c9de50a3c" opacity=".569" transform="translate(.01 -3.457)" style="isolation:isolate"/><path fill="url(#F)" d="M36.618 11.666l-8.474 4.894a.358.358 0 000 .618l8.475 4.893a.722.722 0 00.722 0l8.474-4.893a.358.358 0 000-.618l-8.474-4.893a.722.722 0 00-.723 0z" data-name="c1ee0af7-af33-49b8-814e-87862bead690" opacity=".549" transform="translate(.01 -3.457)" style="isolation:isolate"/><path fill="url(#G)" d="M36.618 11.378l-8.474 4.893a.358.358 0 000 .618l8.475 4.893a.722.722 0 00.722 0l8.474-4.893a.358.358 0 000-.618l-8.474-4.893a.722.722 0 00-.723 0z" data-name="48e0d505-51c2-4d33-bbd4-4045a74b9710" opacity=".529" transform="translate(.01 -3.457)" style="isolation:isolate"/><path fill="url(#H)" d="M36.618 11.095l-8.474 4.893a.358.358 0 000 .618l8.475 4.893a.722.722 0 00.722 0l8.474-4.893a.358.358 0 000-.618l-8.474-4.893a.722.722 0 00-.723 0z" data-name="199cd7fa-567f-471f-a8dc-ef7282ecd0b9" opacity=".51" transform="translate(.01 -3.457)" style="isolation:isolate"/><path fill="url(#I)" d="M36.618 10.812l-8.474 4.893a.358.358 0 000 .618l8.475 4.893a.722.722 0 00.722 0l8.474-4.893a.358.358 0 000-.618l-8.474-4.894a.722.722 0 00-.723 0z" data-name="3c885ecd-4f98-4ab7-b807-27c7c5026cbf" opacity=".49" transform="translate(.01 -3.457)" style="isolation:isolate"/><path fill="url(#J)" d="M36.618 10.523l-8.474 4.893a.358.358 0 000 .618l8.475 4.893a.722.722 0 00.722 0l8.474-4.893a.358.358 0 000-.618l-8.474-4.893a.722.722 0 00-.723 0z" data-name="e34193fc-addd-439b-bb11-e253c9c1cee0" opacity=".471" transform="translate(.01 -3.457)" style="isolation:isolate"/><path fill="url(#K)" d="M36.618 10.24l-8.474 4.893a.358.358 0 000 .618l8.475 4.893a.722.722 0 00.722 0l8.474-4.893a.358.358 0 000-.618l-8.474-4.893a.722.722 0 00-.723 0z" data-name="04fc3056-e9a3-4e3a-8483-55774c20a1ae" opacity=".451" transform="translate(.01 -3.457)" style="isolation:isolate"/><path fill="url(#L)" d="M36.618 9.95l-8.474 4.894a.358.358 0 000 .618l8.475 4.893a.722.722 0 00.722 0l8.474-4.893a.358.358 0 000-.618L37.341 9.95a.722.722 0 00-.723 0z" data-name="d79cd5bf-e0fc-4a10-a16a-21267e137d69" opacity=".431" transform="translate(.01 -3.457)" style="isolation:isolate"/><path fill="url(#M)" d="M36.618 9.668l-8.474 4.893a.358.358 0 000 .618l8.475 4.893a.722.722 0 00.722 0l8.474-4.893a.358.358 0 000-.618l-8.474-4.893a.722.722 0 00-.723 0z" data-name="7913f3e0-52a9-4a45-a993-257f9e9546ef" opacity=".412" transform="translate(.01 -3.457)" style="isolation:isolate"/><path fill="url(#N)" d="M36.618 9.379l-8.474 4.893a.358.358 0 000 .618l8.475 4.893a.722.722 0 00.722 0l8.474-4.893a.358.358 0 000-.618l-8.474-4.893a.722.722 0 00-.723 0z" data-name="63717e46-4728-41a1-ad57-0b8e292a2486" opacity=".392" transform="translate(.01 -3.457)" style="isolation:isolate"/><path fill="url(#O)" d="M36.618 9.096l-8.474 4.893a.358.358 0 000 .618l8.474 4.893a.722.722 0 00.723 0l8.474-4.893a.358.358 0 000-.618l-8.474-4.893a.722.722 0 00-.723 0z" data-name="136fd235-6331-4035-8d19-3f1cc3390020" opacity=".373" transform="translate(.01 -3.457)" style="isolation:isolate"/><path fill="url(#P)" d="M36.618 8.807L28.144 13.7a.358.358 0 000 .618l8.475 4.893a.722.722 0 00.722 0l8.474-4.893a.358.358 0 000-.618l-8.474-4.893a.722.722 0 00-.723 0z" data-name="fca3eb6c-4e06-4b84-b316-9fdede26919e" opacity=".353" transform="translate(.01 -3.457)" style="isolation:isolate"/><path fill="url(#Q)" d="M36.618 8.524l-8.474 4.893a.358.358 0 000 .618l8.475 4.893a.722.722 0 00.722 0l8.474-4.893a.358.358 0 000-.618l-8.474-4.893a.722.722 0 00-.723 0z" data-name="c8427b17-5392-4c49-bee3-8b580fbb575b" opacity=".333" transform="translate(.01 -3.457)" style="isolation:isolate"/><path fill="url(#R)" d="M36.618 8.235l-8.474 4.893a.358.358 0 000 .618l8.475 4.893a.722.722 0 00.722 0l8.474-4.893a.358.358 0 000-.618l-8.474-4.893a.722.722 0 00-.723 0z" data-name="5013f7b6-63d0-49b7-9b8d-986d080523b9" opacity=".314" transform="translate(.01 -3.457)" style="isolation:isolate"/><path fill="url(#S)" d="M36.618 7.952l-8.474 4.893a.358.358 0 000 .618l8.475 4.893a.722.722 0 00.722 0l8.474-4.893a.358.358 0 000-.618l-8.474-4.893a.722.722 0 00-.723 0z" data-name="bfa2a6c4-f868-48cf-b5d5-669137a261fd" opacity=".294" transform="translate(.01 -3.457)" style="isolation:isolate"/><path fill="url(#T)" d="M36.618 7.663l-8.474 4.893a.358.358 0 000 .618l8.475 4.893a.722.722 0 00.722 0l8.474-4.893a.358.358 0 000-.618l-8.474-4.893a.722.722 0 00-.723 0z" data-name="8941bfc9-e8fe-4fd4-a847-36ead2c1c086" opacity=".275" transform="translate(.01 -3.457)" style="isolation:isolate"/><path fill="url(#U)" d="M36.618 7.38l-8.474 4.893a.358.358 0 000 .618l8.475 4.893a.722.722 0 00.722 0l8.474-4.893a.358.358 0 000-.618L37.341 7.38a.722.722 0 00-.723 0z" data-name="d2ea7677-ead3-4f7b-bd43-eca7eb16b57d" opacity=".255" transform="translate(.01 -3.457)" style="isolation:isolate"/><path fill="url(#V)" d="M36.618 7.091l-8.474 4.893a.358.358 0 000 .618l8.475 4.893a.722.722 0 00.722 0l8.474-4.893a.358.358 0 000-.618l-8.474-4.893a.722.722 0 00-.723 0z" data-name="bc5c12a5-11b3-4419-9473-714f1528ef0b" opacity=".235" transform="translate(.01 -3.457)" style="isolation:isolate"/><path fill="url(#W)" d="M36.618 6.808l-8.474 4.893a.358.358 0 000 .618l8.475 4.893a.722.722 0 00.722 0l8.474-4.893a.358.358 0 000-.618l-8.469-4.893a.722.722 0 00-.727 0z" data-name="851aa0f3-b8ff-4a5d-8cdd-19bfb80309d4" opacity=".216" transform="translate(.01 -3.457)" style="isolation:isolate"/><path fill="url(#X)" d="M36.618 6.52l-8.474 4.892a.358.358 0 000 .618l8.475 4.893a.722.722 0 00.722 0l8.474-4.893a.358.358 0 000-.618l-8.469-4.893a.722.722 0 00-.727 0z" data-name="aaac9f45-5046-46d1-86be-05baf66fa00b" opacity=".196" transform="translate(.01 -3.457)" style="isolation:isolate"/><path fill="url(#Y)" d="M36.618 6.236l-8.474 4.893a.358.358 0 000 .618l8.475 4.893a.722.722 0 00.722 0l8.474-4.893a.358.358 0 000-.618l-8.474-4.893a.722.722 0 00-.723 0z" data-name="eb128ebc-d370-4b6c-85d2-8e7a47ebf685" opacity=".176" transform="translate(.01 -3.457)" style="isolation:isolate"/><path fill="url(#Z)" d="M36.618 5.947l-8.474 4.893a.358.358 0 000 .618l8.475 4.893a.722.722 0 00.722 0l8.474-4.893a.358.358 0 000-.618l-8.474-4.893a.722.722 0 00-.723 0z" data-name="28e4917d-7b92-4b61-a9fa-5758a7ec7bb3" opacity=".157" transform="translate(.01 -3.457)" style="isolation:isolate"/><path fill="url(#aa)" d="M36.618 5.664l-8.474 4.893a.358.358 0 000 .618l8.475 4.893a.722.722 0 00.722 0l8.474-4.893a.358.358 0 000-.618l-8.474-4.893a.722.722 0 00-.723 0z" data-name="b3827c7c-f94e-4b5c-9cf2-154186b11dca" opacity=".137" transform="translate(.01 -3.457)" style="isolation:isolate"/><path fill="url(#ab)" d="M36.618 5.375l-8.474 4.9a.358.358 0 000 .617l8.475 4.893a.722.722 0 00.722 0l8.474-4.893a.358.358 0 000-.618l-8.474-4.893a.722.722 0 00-.723-.006z" data-name="954db574-995e-4721-b95a-01aec74cbf46" opacity=".118" transform="translate(.01 -3.457)" style="isolation:isolate"/><path fill="url(#ac)" d="M36.618 5.092l-8.474 4.893a.358.358 0 000 .619l8.475 4.893a.722.722 0 00.722 0l8.474-4.893a.358.358 0 000-.619l-8.474-4.893a.722.722 0 00-.723 0z" data-name="5fed43a4-8131-459f-b94f-88de415ee90f" opacity=".098" transform="translate(.01 -3.457)" style="isolation:isolate"/><path fill="url(#ad)" d="M36.618 4.803l-8.474 4.894a.358.358 0 000 .618l8.475 4.893a.722.722 0 00.722 0l8.474-4.893a.358.358 0 000-.619l-8.469-4.893a.722.722 0 00-.727 0z" data-name="91c5ef4d-c805-46e5-902f-3464b16ff0dd" opacity=".078" transform="translate(.01 -3.457)" style="isolation:isolate"/><path fill="url(#ae)" d="M36.618 4.52l-8.474 4.894a.358.358 0 000 .618l8.475 4.893a.722.722 0 00.722 0l8.474-4.893a.358.358 0 000-.618L37.346 4.52a.722.722 0 00-.727 0z" data-name="e266e6cc-a650-4dac-abc4-f257e5741699" opacity=".059" transform="translate(.01 -3.457)" style="isolation:isolate"/><path fill="url(#af)" d="M36.618 4.231l-8.474 4.894a.358.358 0 000 .618l8.475 4.893a.722.722 0 00.722 0l8.474-4.893a.358.358 0 000-.618L37.346 4.23a.722.722 0 00-.727 0z" data-name="f0f231ce-6f42-46dd-bebb-4421079e0bbd" opacity=".039" transform="translate(.01 -3.457)" style="isolation:isolate"/><path fill="url(#ag)" d="M36.618 3.948l-8.474 4.894a.358.358 0 000 .618l8.475 4.893a.722.722 0 00.722 0l8.474-4.893a.358.358 0 000-.618l-8.469-4.894a.722.722 0 00-.727 0z" data-name="1b75d2f5-1082-4f36-9e33-dffc15593995" opacity=".02" transform="translate(.01 -3.457)" style="isolation:isolate"/><path fill="none" d="M36.628.203l-8.474 4.893a.358.358 0 000 .618l8.474 4.893a.722.722 0 00.722 0l8.475-4.893a.358.358 0 000-.618L37.356.203a.722.722 0 00-.728 0z" data-name="5c0b14d9-6349-4332-a4cc-5b572411ec7e"/></g><path fill="#99a7d8" d="M22.284 26.847l-2.9-1.67v.838l2.9 1.675v-.843z" data-name="fb1a2731-62fe-4865-816e-b75f867e5b98"/><path fill="#99a7d8" d="M22.284 28.325l-2.9-1.675v.838l2.9 1.675v-.838z" data-name="4ac4be73-3a7d-4c58-869d-69e3ed386e30"/><path fill="#99a7d8" d="M22.284 29.81l-2.9-1.669v.837l2.9 1.676v-.844z" data-name="a7526979-25c9-435c-aa3d-aa45a1b47d18"/><path fill="#99a7d8" d="M22.284 31.301l-2.9-1.676v.838l2.9 1.675v-.837z" data-name="2e0eba95-b73a-498b-9f38-998575c8a1d9"/><path fill="#99a7d8" d="M22.284 32.785l-2.9-1.669v.837l2.9 1.676v-.844z" data-name="ecb36c8f-18d1-4279-8ce8-d125ac07717b"/><path fill="#99a7d8" d="M22.284 34.276l-2.9-1.67v.832l2.9 1.675v-.837z" data-name="7a51c986-7967-4b44-8874-0ed2b806856e"/><path fill="url(#c)" d="M39.588 37.582l13.865-8.018a.872.872 0 011.305.757v8.734a1.219 1.219 0 01-.612 1.058L40.281 48.13a.872.872 0 01-1.305-.757V38.64a1.219 1.219 0 01.612-1.057z" data-name="b445eeed-22c5-4cf6-a566-29b9dc2af8e0" transform="translate(.01 -3.457)"/><path fill="url(#ah)" d="M53.903 29.442a.86.86 0 01.11.428v8.74a1.219 1.219 0 01-.612 1.058l-13.865 8.018a.86.86 0 01-.45.116.872.872 0 001.187.334l.008-.005 13.865-8.018a1.219 1.219 0 00.612-1.058V30.32a.872.872 0 00-.855-.878z" data-name="c639a8b4-c831-45a4-88fd-303809306dec" transform="translate(.01 -3.457)"/><path fill="url(#ai)" d="M39.588 51.268l13.865-8.018a.872.872 0 011.305.756v8.735a1.219 1.219 0 01-.612 1.057l-13.865 8.019a.872.872 0 01-1.305-.757v-8.735a1.219 1.219 0 01.612-1.057z" data-name="275bf276-1453-4100-97ce-a9d49e55720f" transform="translate(.01 -3.457)"/><path fill="url(#aj)" d="M53.903 43.128a.86.86 0 01.11.428v8.717a1.219 1.219 0 01-.612 1.057l-13.865 8.02a.86.86 0 01-.45.115.872.872 0 001.187.334l.008-.004 13.865-8.019a1.219 1.219 0 00.612-1.057V44a.872.872 0 00-.855-.872z" data-name="d1162e9f-d80b-45d8-81f2-a22b450cb6ee" transform="translate(.01 -3.457)"/><path fill="#5c629e" d="M49.419 30.498c1.386-.803 2.524-.145 2.524 1.467a5.615 5.615 0 01-2.53 4.385c-1.392.803-2.53.144-2.524-1.467a5.627 5.627 0 012.53-4.385z" data-name="bfaf1988-0f07-4aab-bd67-7cd8565caaf3"/><path fill="url(#ak)" d="M49.49 33.475l-.11.07v3.286l2.837-2.692c-.4-1.069-1.468-1.386-2.727-.664z" data-name="e7935542-dd06-411f-8902-df1ffc5e7bc9" transform="translate(.01 -3.457)"/><path fill="#99a7d8" d="M51.7 34.282a5.777 5.777 0 00.7-2.577 3.409 3.409 0 00-.035-.456l-2.946 2.126z" data-name="4657835c-1f4f-4418-af46-d2af6199f62a"/><path fill="url(#al)" d="M40.031 35.68l1.67-.948v.659l-1.67.947v-.658z" data-name="48e4a585-3833-4e6c-b0b3-d28e56f33968"/><path fill="url(#am)" d="M41.949 34.594l.832-.474v.658l-.832.474v-.658z" data-name="9b7f1370-8c34-4139-9fb3-1f5e60edb251"/><path fill="#5c629e" d="M40.031 36.87l5.962-3.443v.658l-5.962 3.443v-.658z" data-name="8aa85e81-3233-4019-93f3-601a54dbd975"/><path fill="#5c629e" d="M40.031 38.06l2.571-1.479v.658l-2.571 1.479v-.658z" data-name="53036d8c-8305-4afd-8c58-9350e8362fcd"/><path fill="#5c629e" d="M43.012 36.361l2.981-1.715v.658l-2.981 1.716v-.659z" data-name="97bf4df9-99f0-4cbd-9968-2eeebb7def18"/><path fill="#5c629e" d="M40.031 39.25l3.992-2.305v.658l-3.992 2.305v-.658z" data-name="b1c87698-2662-4648-9505-b2adeceddd3a"/><path fill="#5c629e" d="M44.306 36.8l1.687-.97v.658l-1.687.971V36.8z" data-name="0b66ee60-61fa-4f63-afef-df9323c7c395"/><path fill="#5c629e" d="M40.031 40.44l5.199-2.981v.659l-5.199 2.98v-.658z" data-name="fa4d7ad6-6594-4c23-9266-f2bb8ef5981f"/><path fill="#5c629e" d="M40.031 41.63l3.992-2.305v.658l-3.992 2.306v-.659z" data-name="b84aff11-e664-4381-acad-e3ead7487539"/><path fill="#5c629e" d="M53.497 44.073a.035.035 0 00.003-.049l-.003-.003a.04.04 0 00-.052 0l-13.27 7.684v-1.421l13.334-7.7a.036.036 0 00-.035-.064l-13.298 7.683v-1.525a.038.038 0 10-.076 0v1.565l-.439.255a.035.035 0 000 .069l.399-.231v1.369l-.44.254a.035.035 0 000 .07l.4-.232v1.404l-.44.255a.035.035 0 000 .069l.399-.231v1.404l-.44.254a.035.035 0 000 .07l.4-.232v1.403l-.44.255a.035.035 0 000 .069l.399-.231v.277a.038.038 0 00.075 0v-.317l13.333-7.701a.035.035 0 00.003-.049l-.003-.003a.04.04 0 00-.052 0l-13.078 7.66V54.75l13.333-7.701a.036.036 0 00-.035-.064l-13.287 7.678V53.26l13.334-7.7a.036.036 0 00-.035-.064l-13.31 7.683v-1.404z" data-name="a6fd519c-ab5b-4301-8b44-1438d5156fae" style="isolation:isolate" opacity=".52"/><path fill="url(#an)" d="M40.181 56.182v-1.895l1.531-2.172.797.584 1.618-3.207.589 1.035h.861l1.381-2.051.808-.497h1.676l1.069-1.554 1.213.549 1.282-.058v1.872l-12.825 7.394z" data-name="66bbcd71-1952-4442-8a6f-7c00a386bcf9"/><path fill="url(#ao)" d="M40.632 48.129l1.664-.947v.652l-1.664.954v-.659z" data-name="8f864642-21fb-41ad-a44b-b5f654c8e95e"/><path fill="#5c629e" d="M40.632 49.319l5.962-3.449v.659l-5.962 3.449v-.659z" data-name="12c81fd5-15c3-4856-a6d7-6fa6b73bd846"/><path fill="none" d="M30.274 13.034h-2.415" data-name="40cf13fa-0a4e-4eeb-b888-4f3b8d62b524"/><path fill="none" d="M34.3 15.974h-2.415" data-name="ca567635-0733-4c8f-ad34-29dcb0d9b04f"/><path fill="none" d="M33.359 17.361h-2.415" data-name="50587af6-1da8-4bae-9402-4073006c4f63"/><path fill="none" d="M42.07 14.391h-2.409" data-name="a7d386a2-41e0-4db8-b8cd-358fd8b178d8"/><path fill="none" d="M40.204 15.217h-1.559" data-name="c628fa77-4ae7-4f2c-8073-b9a1ce74ed31"/><path fill="none" d="M37.102 15.587h-1.56" data-name="8debaaca-9f20-4ee0-ba82-579c75f0bd24"/><path fill="none" d="M35.964 15.974h-1.023" data-name="a0e3eb07-d83e-405d-bcd3-f1dce89462eb"/><path fill="none" d="M46.005 15.974h-3.184" data-name="15ea11e1-c20a-4d22-994a-769d75a25a15"/></g><path fill="#49496c" d="M110.163 43.69c0 4.394-2.163 6.938-5.32 7.007h-1.388v-.138a9.853 9.853 0 01-2.996-1.157c-5.331-3.122-9.703-10.79-9.703-17.035a7.702 7.702 0 011.944-5.655l.682-.787 1.4-.416a7.587 7.587 0 015.643 1.157c5.366 3.134 9.737 10.801 9.737 17.023z"/><path fill="#5c629e" d="M108.879 43.851c0 6.164-4.36 8.685-9.703 5.609s-9.703-10.651-9.703-16.815 4.36-8.686 9.703-5.61 9.703 10.594 9.703 16.816z" data-name="b1ba8a8a-50e3-4d30-b68e-689d66bfaed5"/><path fill="#fff" d="M107.433 42.96c0 5.216-3.712 7.367-8.257 4.742a18.365 18.365 0 01-8.27-14.26c0-5.216 3.713-7.367 8.258-4.742a18.4 18.4 0 018.27 14.26z" data-name="b65c5145-8be0-4152-a90a-1ef346117175"/><path fill="#d3daed" d="M103.212 48.835a7.112 7.112 0 01-4.036-1.098 18.319 18.319 0 01-8.27-14.294c0-3.91 2.06-6.107 5.008-5.875-2.51.196-4.21 2.313-4.21 5.875a18.319 18.319 0 008.258 14.305 7.806 7.806 0 003.25 1.088z" data-name="8f9c7d20-4369-432e-a296-049e57de603a"/><g data-name="0672e173-137e-4ff3-b534-c1010646d0e0"><path fill="url(#e)" d="M103.214 50.95a.486.486 0 00.44-.682l-4.06-8.743v-.092a.486.486 0 10-.821.497l4.036 8.778a.486.486 0 00.44.277z" data-name="430a1c7a-d1b6-4546-80f4-681f10917773" transform="translate(.01 -3.457)"/></g><g data-name="ad294caf-ca24-45eb-8e70-64c73e73674b"><path fill="#48486a" d="M99.176 38.681a.486.486 0 00.485-.485v-5.91a.486.486 0 10-.96 0v5.967a.486.486 0 00.486.486z" data-name="60d2c679-9920-49ef-8f28-6cdb4738b3e6"/></g><path fill="#48486a" d="M100.436 38.612c0 .81-.566 1.157-1.26.74a2.81 2.81 0 01-1.26-2.197c0-.81.566-1.157 1.26-.74a2.81 2.81 0 011.26 2.197z" data-name="e5ffcac0-b31a-433c-a364-11e5dc7415fb"/><path fill="#48486a" d="M93.093 34.865a.254.254 0 01-.405.231.89.89 0 01-.405-.694.254.254 0 01.405-.23.89.89 0 01.405.693z" data-name="ed884bb4-e57e-4bb3-a24b-4d1d0c8b41de"/><path fill="#48486a" d="M99.58 29.903a.254.254 0 01-.404.232.89.89 0 01-.405-.694.254.254 0 01.405-.231.89.89 0 01.404.693z" data-name="e088b28c-4eb5-474c-8016-06352540c425"/><path fill="#48486a" d="M106.508 43.18a.254.254 0 01-.405.231.89.89 0 01-.405-.693.254.254 0 01.405-.232.89.89 0 01.405.694z" data-name="5a808b66-1d8e-4181-9571-f5b94e754bde"/><path fill="#48486a" d="M99.974 46.707a.254.254 0 01-.405.232.89.89 0 01-.405-.694.254.254 0 01.405-.231.89.89 0 01.405.693z" data-name="03a921dc-7d14-4c68-9f68-7a6e3bd865f2"/><g fill="#5c629e"><path d="M16.874 90.459a.243.243 0 01-.123-.034L3.759 82.73a.243.243 0 01.247-.418l12.992 7.694a.243.243 0 01-.124.452z"/><path d="M.438 80.49a3.07 3.07 0 001.206 1.124l2.205 1.179a.243.243 0 00.23-.429l-2.207-1.179a2.59 2.59 0 01.021-4.597l.579-.297c9.47-4.862 26.894-12.163 24.352-20.378-.176-.566-.635-.423-.465.141 2.352 7.85-14.764 15.008-24.11 19.805l-.578.297A3.028 3.028 0 000 78.877a3.062 3.062 0 00.438 1.614z"/></g><g data-name="29bdef19-4ba3-49c7-b484-cecf8baccd2c"><g data-name="c1742f9c-9eec-459a-abd5-2a29e3c24a80"><g opacity=".5"><path fill="none" d="M9.73 104.833l15.41-8.898a1.666 1.666 0 011.666 0l15.411 8.898a1.183 1.183 0 010 2.047l-15.41 8.897a1.666 1.666 0 01-1.666 0L9.73 106.88a1.204 1.204 0 01-.364-1.65 1.665 1.665 0 01.364-.397z" data-name="bda19abd-19de-4a54-a7de-f961183e3fee"/><path d="M9.804 104.837l15.34-8.858a1.661 1.661 0 011.662 0l15.34 8.858a1.175 1.175 0 010 2.038l-15.34 8.858a1.661 1.661 0 01-1.661 0l-15.34-8.858a1.175 1.175 0 010-2.038z" style="isolation:isolate" fill="#fbfbfc" opacity=".02"/><path d="M9.879 104.841l15.27-8.818a1.652 1.652 0 011.653 0l15.27 8.818a1.17 1.17 0 010 2.03l-15.27 8.819a1.652 1.652 0 01-1.653 0l-15.27-8.82a1.17 1.17 0 010-2.029z" style="isolation:isolate" fill="#f8f8f9" opacity=".039"/><path d="M9.944 104.846l15.2-8.766a1.644 1.644 0 011.644 0l15.2 8.766a1.166 1.166 0 010 2.02l-15.2 8.767a1.644 1.644 0 01-1.644 0l-15.2-8.767a1.166 1.166 0 010-2.02z" style="isolation:isolate" fill="#f4f4f6" opacity=".059"/><path d="M10.023 104.85l15.13-8.735a1.635 1.635 0 011.635 0l15.152 8.735a1.161 1.161 0 010 2.008l-15.13 8.735a1.635 1.635 0 01-1.634 0l-15.153-8.731a1.161 1.161 0 010-2.012z" style="isolation:isolate" fill="#f1f1f3" opacity=".078"/><path d="M10.098 104.855l15.064-8.696a1.63 1.63 0 011.63 0l15.065 8.696a1.153 1.153 0 010 1.998l-15.068 8.71a1.63 1.63 0 01-1.63 0l-15.06-8.705a1.153 1.153 0 010-2.003z" style="isolation:isolate" fill="#ededf0" opacity=".098"/><path d="M10.172 104.859l14.995-8.657a1.622 1.622 0 011.622 0l14.994 8.657a1.148 1.148 0 010 1.99l-14.994 8.656a1.622 1.622 0 01-1.622 0l-14.995-8.652a1.148 1.148 0 010-1.994z" style="isolation:isolate" fill="#e9e9ed" opacity=".118"/><path d="M10.247 104.863l14.902-8.617a1.613 1.613 0 011.613 0l14.903 8.617a1.144 1.144 0 010 1.981l-14.903 8.618a1.613 1.613 0 01-1.613 0l-14.902-8.618a1.023 1.023 0 01-1.144-.99 1.144 1.144 0 011.144-1.144z" style="isolation:isolate" fill="#e6e6eb" opacity=".137"/><path d="M10.321 104.868l14.85-8.591a1.604 1.604 0 011.605 0l14.854 8.573a1.14 1.14 0 010 1.973l-14.854 8.573a1.604 1.604 0 01-1.605 0l-14.85-8.556a1.14 1.14 0 010-1.972z" style="isolation:isolate" fill="#e2e2e8" opacity=".157"/><path d="M10.383 104.872l14.784-8.534a1.6 1.6 0 011.6 0l14.784 8.534a1.135 1.135 0 010 1.964l-14.775 8.538a1.6 1.6 0 01-1.6 0l-14.793-8.538a1.135 1.135 0 010-1.964z" style="isolation:isolate" fill="#dfdfe5" opacity=".176"/><path d="M10.466 104.88l14.714-8.493a1.591 1.591 0 011.59 0l14.732 8.494a1.126 1.126 0 010 1.955l-14.714 8.494a1.591 1.591 0 01-1.59 0l-14.732-8.499a1.126 1.126 0 010-1.95z" style="isolation:isolate" fill="#dbdbe2" opacity=".196"/><path d="M10.54 104.885l14.644-8.455a1.582 1.582 0 011.583 0l14.643 8.455a1.122 1.122 0 010 1.946l-14.643 8.455a1.582 1.582 0 01-1.583 0l-14.643-8.459a1.122 1.122 0 010-1.942z" style="isolation:isolate" fill="#d8d8df" opacity=".216"/><path d="M10.615 104.89l14.574-8.416a1.578 1.578 0 011.578 0l14.573 8.416a1.118 1.118 0 010 1.933l-14.574 8.415a1.578 1.578 0 01-1.578 0l-14.573-8.415a.999.999 0 01-1.118-.967.923.923 0 011.118-.966z" style="isolation:isolate" fill="#d4d4dc" opacity=".235"/><path d="M10.69 104.894l14.503-8.372a1.57 1.57 0 011.57 0l14.503 8.372a1.113 1.113 0 010 1.924l-14.504 8.372a1.57 1.57 0 01-1.569 0l-14.503-8.372a1.113 1.113 0 010-1.924z" style="isolation:isolate" fill="#d0d0d9" opacity=".255"/><path d="M10.764 104.898l14.434-8.327a1.56 1.56 0 011.56 0l14.433 8.327a1.105 1.105 0 010 1.916l-14.434 8.328a1.56 1.56 0 01-1.56 0l-14.433-8.346a1.105 1.105 0 010-1.898z" style="isolation:isolate" fill="#cdcdd6" opacity=".275"/><path d="M10.821 104.903l14.363-8.293a1.552 1.552 0 011.552 0l14.363 8.293a1.1 1.1 0 010 1.906l-14.363 8.293a1.552 1.552 0 01-1.552 0l-14.363-8.306a1.1 1.1 0 010-1.893z" style="isolation:isolate" fill="#c9c9d3" opacity=".294"/><path d="M10.909 104.907l14.293-8.254a1.547 1.547 0 011.547 0l14.293 8.254a1.096 1.096 0 010 1.898l-14.293 8.253a1.547 1.547 0 01-1.547 0l-14.293-8.262a1.096 1.096 0 010-1.89z" style="isolation:isolate" fill="#c6c6d0" opacity=".314"/><path d="M10.983 104.912l14.223-8.197a1.538 1.538 0 011.539 0l14.223 8.21a1.091 1.091 0 010 1.889l-14.223 8.21a1.538 1.538 0 01-1.539 0l-14.223-8.228a1.091 1.091 0 010-1.884z" style="isolation:isolate" fill="#c2c2cd" opacity=".333"/><path d="M11.058 104.916l14.153-8.17a1.53 1.53 0 011.53 0l14.153 8.17a1.087 1.087 0 010 1.88l-14.153 8.17a1.53 1.53 0 01-1.53 0l-14.153-8.17a1.087 1.087 0 010-1.88z" style="isolation:isolate" fill="#bebeca" opacity=".353"/><path d="M11.132 104.92l14.083-8.13a1.52 1.52 0 011.521 0l14.083 8.13a1.078 1.078 0 010 1.872l-14.083 8.13a1.52 1.52 0 01-1.521 0l-14.083-8.126a1.078 1.078 0 010-1.876z" style="isolation:isolate" fill="#bbbbc7" opacity=".373"/><path d="M11.207 104.925l14.025-8.092a1.516 1.516 0 011.517 0l14.026 8.092a1.074 1.074 0 010 1.862l-14.026 8.091a1.516 1.516 0 01-1.516 0l-14.026-8.082a1.074 1.074 0 010-1.871z" style="isolation:isolate" fill="#b7b7c5" opacity=".392"/><path d="M11.26 104.93l13.942-8.053a1.508 1.508 0 011.508 0l13.942 8.052a1.07 1.07 0 010 1.85L26.71 114.83a1.508 1.508 0 01-1.508 0l-13.942-8.034a1.07 1.07 0 010-1.867z" style="isolation:isolate" fill="#b4b4c2" opacity=".412"/><path d="M11.351 104.933l13.873-8.007a1.499 1.499 0 011.499 0l13.872 8.007a1.065 1.065 0 010 1.841l-13.872 8.008a1.499 1.499 0 01-1.5 0l-13.872-7.986a1.065 1.065 0 010-1.863z" style="isolation:isolate" fill="#b0b0bf" opacity=".431"/><path d="M11.426 104.938l13.802-7.969a1.495 1.495 0 011.495 0l13.802 7.969a1.056 1.056 0 010 1.832l-13.802 7.968a1.495 1.495 0 01-1.495 0l-13.802-7.968a1.056 1.056 0 010-1.832z" style="isolation:isolate" fill="#acacbc" opacity=".451"/><path d="M11.5 104.942l13.732-7.929a1.486 1.486 0 011.486 0l13.733 7.93a1.052 1.052 0 010 1.823l-13.733 7.92a1.486 1.486 0 01-1.485 0l-13.733-7.92a1.052 1.052 0 010-1.824z" style="isolation:isolate" fill="#a9a9b9" opacity=".471"/><path d="M11.575 104.947l13.662-7.89a1.477 1.477 0 011.477 0l13.662 7.89a1.048 1.048 0 010 1.814l-13.662 7.89a1.477 1.477 0 01-1.477 0l-13.662-7.89a.937.937 0 01-1.048-.907.867.867 0 011.048-.907z" style="isolation:isolate" fill="#a5a5b6" opacity=".49"/><path d="M11.65 104.955l13.587-7.845a1.468 1.468 0 011.469 0l13.587 7.845a1.043 1.043 0 010 1.806l-13.587 7.846a1.468 1.468 0 01-1.469 0L11.65 106.76a1.229 1.229 0 01.089-1.617c.014-.016.03-.03-.09-.189z" style="isolation:isolate" fill="#a2a2b3" opacity=".51"/><path d="M11.724 104.96l13.522-7.807a1.464 1.464 0 011.464 0l13.521 7.807a1.039 1.039 0 010 1.797l-13.521 7.806a1.464 1.464 0 01-1.464 0l-13.522-7.81a1.039 1.039 0 010-1.793z" style="isolation:isolate" fill="#9e9eb0" opacity=".529"/><path d="M11.794 104.964l13.452-7.767a1.455 1.455 0 011.455 0l13.451 7.767a1.03 1.03 0 010 1.789l-13.451 7.766a1.455 1.455 0 01-1.455 0l-13.452-7.771a1.03 1.03 0 010-1.784z" style="isolation:isolate" fill="#9b9bad" opacity=".549"/><path d="M11.869 104.969l13.38-7.728a1.446 1.446 0 011.447 0l13.382 7.728a1.026 1.026 0 010 1.775l-13.382 7.727a1.446 1.446 0 01-1.446 0l-13.381-7.728a1.026 1.026 0 010-1.775z" style="isolation:isolate" fill="#9797aa" opacity=".569"/><path d="M11.943 104.973l13.311-7.683a1.438 1.438 0 011.438 0l13.311 7.683a1.021 1.021 0 010 1.754l-13.31 7.683a1.438 1.438 0 01-1.439 0l-13.31-7.67a1.021 1.021 0 010-1.766z" style="isolation:isolate" fill="#9393a7" opacity=".588"/><path d="M12.018 104.977l13.24-7.644a1.433 1.433 0 011.434 0l13.241 7.644a1.017 1.017 0 010 1.753l-13.24 7.649a1.433 1.433 0 01-1.434 0l-13.241-7.644a1.017 1.017 0 010-1.758z" style="isolation:isolate" fill="#9090a4" opacity=".608"/><path d="M12.092 104.982l13.171-7.605a1.425 1.425 0 011.425 0l13.17 7.605a1.008 1.008 0 010 1.753l-13.17 7.6a1.425 1.425 0 01-1.425 0l-13.17-7.605a1.008 1.008 0 010-1.749z" style="isolation:isolate" fill="#8c8ca2" opacity=".627"/><path d="M12.167 104.986l13.118-7.565a1.416 1.416 0 011.416 0l13.1 7.565a1.004 1.004 0 010 1.753l-13.118 7.552a1.416 1.416 0 01-1.415 0l-13.101-7.565a1.004 1.004 0 010-1.74z" style="isolation:isolate" fill="#89899f" opacity=".647"/><path d="M12.237 104.99l13.048-7.525a1.411 1.411 0 011.412 0l13.03 7.525a1 1 0 010 1.732l-13.048 7.525a1.411 1.411 0 01-1.411 0l-13.031-7.525a1 1 0 010-1.732z" style="isolation:isolate" fill="#85859c" opacity=".667"/><path d="M12.311 104.995l12.974-7.482a1.403 1.403 0 011.403 0l12.96 7.482a.995.995 0 010 1.723l-12.96 7.482a1.403 1.403 0 01-1.403 0l-12.974-7.483a.995.995 0 010-1.722z" style="isolation:isolate" fill="#818199" opacity=".686"/><path d="M12.386 105l12.89-7.452a1.394 1.394 0 011.394 0l12.89 7.451a.986.986 0 010 1.714l-12.89 7.451a1.394 1.394 0 01-1.394 0l-12.89-7.45a.884.884 0 01-.986-.857.82.82 0 01.986-.858z" style="isolation:isolate" fill="#7e7e96" opacity=".706"/><path d="M12.46 105.003l12.825-7.411a1.385 1.385 0 011.385 0l12.82 7.403a.982.982 0 010 1.7l-12.82 7.403a1.385 1.385 0 01-1.385 0l-12.825-7.39a.982.982 0 010-1.705z" style="isolation:isolate" fill="#7a7a93" opacity=".725"/><path d="M12.535 105.008l12.75-7.36a1.38 1.38 0 011.38 0l12.75 7.364a.977.977 0 010 1.692l-12.75 7.364a1.38 1.38 0 01-1.38 0l-12.75-7.364a.977.977 0 010-1.696z" style="isolation:isolate" fill="#777790" opacity=".745"/><path d="M12.61 105.012l12.675-7.32a1.372 1.372 0 011.372 0l12.68 7.32a.973.973 0 010 1.683l-12.68 7.32a1.372 1.372 0 01-1.372 0l-12.68-7.32a.973.973 0 01.005-1.683z" style="isolation:isolate" fill="#73738d" opacity=".765"/><path d="M12.68 105.017l12.606-7.28a1.363 1.363 0 011.363 0l12.61 7.28a.969.969 0 010 1.674l-12.61 7.28a1.363 1.363 0 01-1.363 0l-12.606-7.28a.969.969 0 010-1.674z" style="isolation:isolate" fill="#6f6f8a" opacity=".784"/><path d="M12.754 105.043l12.531-7.262a1.354 1.354 0 011.355 0l12.557 7.262a.96.96 0 010 1.666l-12.54 7.24a1.354 1.354 0 01-1.354 0l-12.55-7.262a.96.96 0 010-1.643z" style="isolation:isolate" fill="#6c6c87" opacity=".804"/><path d="M12.829 105.043l12.456-7.214a1.35 1.35 0 011.35 0l12.487 7.214a.956.956 0 010 1.657l-12.47 7.202a1.35 1.35 0 01-1.35 0l-12.474-7.22a.956.956 0 010-1.639z" style="isolation:isolate" fill="#686884" opacity=".824"/><path d="M12.903 105.043l12.382-7.17a1.341 1.341 0 011.341 0l12.422 7.17a.951.951 0 010 1.648l-12.404 7.15a1.341 1.341 0 01-1.341 0l-12.4-7.163a.951.951 0 010-1.635z" style="isolation:isolate" fill="#656581" opacity=".843"/><path d="M12.977 105.043l12.33-7.118a1.315 1.315 0 011.315 0l12.351 7.118a.947.947 0 010 1.64l-12.33 7.127a1.315 1.315 0 01-1.315 0l-12.35-7.137a.947.947 0 010-1.63z" style="isolation:isolate" fill="#61617e" opacity=".863"/><path d="M13.052 105.043l12.273-7.078a1.315 1.315 0 011.315 0l12.272 7.078a.938.938 0 010 1.626l-12.272 7.079a1.315 1.315 0 01-1.315 0l-12.273-7.079a.938.938 0 010-1.626z" style="isolation:isolate" fill="#5e5e7c" opacity=".882"/><path d="M13.127 105.043l12.193-7.04a1.315 1.315 0 011.315 0l12.19 7.04a.934.934 0 010 1.618L26.63 113.7a1.315 1.315 0 01-1.315 0l-12.19-7.035a.934.934 0 010-1.622z" style="isolation:isolate" fill="#5a5a79" opacity=".902"/><path d="M13.197 105.043L25.32 98.03a1.315 1.315 0 011.315 0l12.124 7.013a.93.93 0 010 1.609l-12.124 7.013a1.315 1.315 0 01-1.315 0l-12.123-7.013a.93.93 0 010-1.609z" style="isolation:isolate" fill="#565676" opacity=".922"/><path d="M13.271 105.043l12.054-6.956a1.315 1.315 0 011.315 0l12.04 6.956a.925.925 0 010 1.6L26.627 113.6a1.315 1.315 0 01-1.315 0l-12.054-6.956a.925.925 0 01.013-1.6z" style="isolation:isolate" fill="#535373" opacity=".941"/><path d="M13.346 105.043l11.983-6.916a1.315 1.315 0 011.315 0l11.961 6.916a.92.92 0 010 1.591l-11.983 6.917a1.315 1.315 0 01-1.315 0l-11.961-6.899a.92.92 0 010-1.608z" style="isolation:isolate" fill="#4f4f70" opacity=".961"/><path d="M13.42 105.043l11.913-6.877a1.289 1.289 0 011.289 0l11.909 6.877a.912.912 0 010 1.583L26.6 113.524a1.289 1.289 0 01-1.289 0l-11.891-6.877a.912.912 0 010-1.604z" style="isolation:isolate" fill="#4c4c6d" opacity=".98"/><path fill="#48486a" d="M13.495 105.07l11.834-6.838a1.28 1.28 0 011.28 0l11.834 6.837a.907.907 0 010 1.574L26.61 113.48a1.28 1.28 0 01-1.28 0l-11.834-6.837a.896.896 0 01-.373-1.219.802.802 0 01.373-.355z" data-name="99ef9537-6ed2-4e26-8483-53cb219e2624"/></g><path fill="#99a7d8" d="M41.182 91.596L25.807 82.72l-14.995 8.876 14.995 8.875 15.375-8.875z" data-name="e9d7e57f-20c1-4c52-88ee-ef896e9ee570"/><path fill="#49486b" d="M41.182 91.596v14.753l-15.375 8.394v-14.272l15.375-8.875z" data-name="0a462e76-ff6a-4ef2-ae05-0412e7296ccf"/><path fill="#5c629e" d="M10.812 91.596v14.271l14.995 8.876v-14.272l-14.995-8.875z" data-name="4a4d98ec-689c-4313-8073-1cf97b0d6de3"/><path fill="#e5e9f4" d="M21.472 99.656v1.026l2.853 1.665v-1.025l-2.853-1.666z" data-name="70879c44-6be3-4b62-bb4d-9f014a27b39b"/><path fill="#e7b620" d="M17.742 97.495v1.03l2.853 1.662v-1.026l-2.853-1.666z" data-name="1e92f80b-4cb2-4541-ad8a-459520881a06"/></g></g><path fill="#49486b" d="M71.247 113.01a1.217 1.217 0 01.686 1.216 2.05 2.05 0 01-.1.595 1 1 0 01-1.343.411c-.739-.292-2.38-1.834-2.441-2.843-.115-1.874 2.029.122 3.198.621zm-4.341 3.1a5.433 5.433 0 01.09 1.28 1.391 1.391 0 01-1.36.529c-.76-.092-2.945-.845-3.431-2.286-.755-2.233 4.219.168 4.219.168z"/><path fill="#e5e9f4" d="M64.77 98.832l-.17 16.873a1.182 1.182 0 00.92 1.17c.064.01.132.02.205.026a1.05 1.05 0 001.003-.415 1.238 1.238 0 00.225-.681l.216-7.203 1.075-6.44 1.488 11.398a.985.985 0 00.409.75 1.14 1.14 0 00.678.184 1.247 1.247 0 00.902-.444.904.904 0 00.215-.61l-.59-6.858-.22-8.748z"/><path fill="#ffc2b0" d="M66.955 83.73l.267 1.537a.705.705 0 01-.576.67c-.586.145-.767-.233-.767-.233l-.265-1.732z"/><path fill="#ffc2b0" d="M63.829 83.775a2.242 2.242 0 10-.206-3.348 2.366 2.366 0 00.206 3.348z"/><path fill="#49486b" d="M66.885 85.294c.04-.016 2.485-1.59 3.389.057 1.473 2.686 1.386 11.331.921 12.451a5.22 5.22 0 01-2.259 2.23 4.512 4.512 0 01-2.192.625c-.764.006-2.23-.673-2.176-1.672a76.011 76.011 0 00-.536-12.22 9.518 9.518 0 012.853-1.47z"/><path fill="url(#ap)" d="M68.234 105.618l1.488 11.398a.985.985 0 00.409.75 1.1 1.1 0 00.127.072c-.31-.231-1.211-9.798-1.378-10.863a1.9 1.9 0 00-.646-1.357z" transform="translate(.01 -3.457)"/><path fill="#ffc2b0" d="M59.068 85.801l-1.328-4.35.702-.291 1.565 3.409-.939 1.232zm13.39-3.428l-.996-4.529-.793.008.298 3.756 1.491.765z"/><path fill="#49486b" d="M64.032 86.765s-2.387.476-3.904-2.303a.377.377 0 00-.63-.066 1.95 1.95 0 00-.4 1.552c.74 2.716 4.752 3.316 5.472 4.891s-.538-4.074-.538-4.074zm4.404-2.035s1.89.146 2.162-1.49a12.5 12.5 0 00.19-1.636.33.33 0 01.37-.32c.453.056 1.154.19 1.249.494.142.453.409 2.675-1.458 6.083-1.223 2.233-2.513-3.13-2.513-3.13z"/><path fill="#ffc2b0" d="M71.466 77.855l-.018-.517a1.063 1.063 0 00-.154-.515l-.524-.86-.136-.172a.398.398 0 00-.523-.09l-.12.076a.495.495 0 00-.23.45l.27.735-.342-.066a.122.122 0 00-.143.097.122.122 0 00.074.135l.56.225.507.72zm-13.745 3.619l-.158-.492a1.063 1.063 0 01-.03-.537l.2-.987.07-.208a.398.398 0 01.461-.262l.14.03a.494.494 0 01.37.346l-.006.783.3-.179a.122.122 0 01.167.044.121.121 0 01-.024.151l-.45.402-.262.954z"/><path fill="#353551" d="M65.15 90.055c.217.993-.394 8.695 1.594 10.602-.764.006-2.229-.673-2.176-1.672a61.055 61.055 0 00-.182-8.446c-.78-1.01-2.923-1.652-4.264-2.947.098.03 4.812 1.481 5.027 2.463z"/><path fill="#fff" d="M67.764 84.86l-.34-.348a2.765 2.765 0 01-1.006.669 5.238 5.238 0 01-.804.166l-.218.603s1.778-.128 2.368-1.09z"/><path fill="#353551" d="M65.26 83.073a.287.287 0 01-.263 0c-.145-.075-.379-.65-.68-.608-.47.066-1.15 1.053-1.997-.324-.44-.715-.183-1.102-.397-1.508 0 0 .076.22 1.92-.905a2.742 2.742 0 013.821 1.03 2.386 2.386 0 01-.44 3.184 2.906 2.906 0 01-1.52-.22c-.026-.109.32-.283.125-.536a.406.406 0 00-.568-.113z"/><g fill="#5c629e"><path d="M82.754 84.346l-1.15 1.408-3.04-2.479 1.15-1.409z"/><path d="M82.06 85.783a1.42 1.42 0 00.813-.996c.065-.405-.192-.615-.575-.47a1.42 1.42 0 00-.813.997c-.065.404.192.614.575.469z"/></g><path fill="#5c629e" d="M80.6 81.863l-1.861 2.283-3.105-2.532 1.862-2.284z"/><path fill="#49486b" d="M80.214 82.275l1.029.839a2.352 2.352 0 01-1.15 1.408l-1.028-.839a2.352 2.352 0 011.149-1.409z"/><path fill="#5c629e" d="M79.478 84.191a2.302 2.302 0 001.316-1.614c.107-.655-.31-.996-.931-.76a2.302 2.302 0 00-1.317 1.614c-.106.656.311.996.932.76z"/><path fill="#49486b" d="M76.372 81.658a2.302 2.302 0 001.316-1.615c.106-.655-.31-.996-.932-.76a2.302 2.302 0 00-1.316 1.615c-.106.655.31.995.932.76z"/><path fill="#d4daed" d="M76.455 81.142a1.302 1.302 0 00.745-.913c.06-.37-.176-.563-.527-.43a1.302 1.302 0 00-.745.913c-.06.371.176.564.527.43zm5.615 3.488c.149.121.295.066.325-.124a.666.666 0 00-.214-.563c-.149-.122-.294-.067-.325.123a.666.666 0 00.214.564z"/><path fill="#5c629e" d="M51.146 115.57a3.07 3.07 0 01-1.587-.448l-2.15-1.274a.243.243 0 01.247-.418l2.152 1.275a2.59 2.59 0 003.92-2.402l-.046-.649c-.755-10.62-2.161-30.386 6.17-32.517a64.93 64.93 0 006.269-1.951c4.274-1.53 4.568-1.446 10.461 3.005a.243.243 0 11-.292.387c-5.854-4.42-5.932-4.393-10.006-2.935a65.397 65.397 0 01-6.312 1.964c-7.938 2.031-6.55 21.535-5.805 32.013l.046.648a3.028 3.028 0 01-1.46 2.84 3.062 3.062 0 01-1.607.462z"/><path fill="#5c629e" d="M47.97 114.142a.243.243 0 01-.124-.034l-12.991-7.695a.243.243 0 01.247-.418l12.992 7.694a.243.243 0 01-.124.452z"/><g data-name="4bae9a21-e4db-44ab-838c-206f043301fa"><path fill="#d3daed" d="M24.16 77.604v7.791a.12.12 0 00.18.105l6.394-3.711a.373.373 0 00.176-.306v-7.79a.12.12 0 00-.18-.105l-6.39 3.71a.373.373 0 00-.18.306z" data-name="03eba63e-fdbf-48ae-addb-b009ba7b0a0e" style="isolation:isolate" opacity=".35"/><path fill="#d3daed" d="M25.534 78.736v11.572a.18.18 0 00.269.153l9.5-5.517a.526.526 0 00.261-.456V72.916a.18.18 0 00-.269-.153l-9.5 5.517a.526.526 0 00-.26.456z" data-name="732308c9-1a1d-4512-abbf-df42b9bb185e" style="isolation:isolate" opacity=".35"/><path fill="#d3daed" d="M26.684 79.437v15.84a.243.243 0 00.373.212l13.002-7.544a.72.72 0 00.373-.624V71.456a.243.243 0 00-.373-.213L27.05 78.8a.72.72 0 00-.365.638z" data-name="a3126537-ab91-49dc-ba57-c282bbe3bfe9" style="isolation:isolate" opacity=".35"/><path fill="#6d6d88" d="M30.002 93.791l.06-.038V83.689h-.06v10.102z" data-name="8e44044e-a495-4dba-83f0-91779f70eeb0"/><path fill="#6d6d88" d="M38.234 80.315h-.06v8.731l.06-.037v-8.694z" data-name="8af2704d-0c7d-4e25-84e6-c97ebc6670d7"/><path fill="#6d6d88" d="M35.762 81.505h-.059v8.974l.059-.037v-8.937z" data-name="63879ada-138f-4e21-adf3-80e0fba655ae"/><path fill="#6d6d88" d="M32.847 80.315h-.06v11.859l.06-.037V80.315z" data-name="6f276ec2-5daa-48cc-addf-ad1059ac8a6d"/><ellipse cx="38.204" cy="80.314" fill="#6d6d88" data-name="ab520b8d-125e-4045-bcdb-ac62dd6f678c" rx=".093" ry=".123"/><ellipse cx="35.733" cy="81.505" fill="#6d6d88" data-name="ae5428e5-d065-4d94-8c0e-f5393950e918" rx=".093" ry=".123"/><ellipse cx="32.817" cy="80.314" fill="#6d6d88" data-name="8c741f0f-c987-4880-b8bc-80aadd040461" rx=".093" ry=".123"/><ellipse cx="30.032" cy="83.689" fill="#6d6d88" data-name="befe33b6-d1df-4496-8413-cdd74b940dea" rx=".093" ry=".123"/><path fill="#48486a" d="M39.313 82.155l-.284.336c-.788.93-2.076.758-2.878.676a2.941 2.941 0 00-2.277.373 2.856 2.856 0 00-.613 1.012c-.06.138-.12.276-.186.41a1.733 1.733 0 01-1.493 1.12 1.99 1.99 0 01-.418-.075l-.202-.048a2.104 2.104 0 00-1.867.859 6.809 6.809 0 00-.642.937 3.607 3.607 0 01-1.582 1.66l-.172-.41a3.348 3.348 0 001.374-1.493 7.126 7.126 0 01.694-1.009 2.538 2.538 0 012.28-1.004c.08.011.158.034.236.053a1.624 1.624 0 00.329.063c.57.022.97-.672 1.075-.885.063-.127.12-.261.179-.392a3.229 3.229 0 01.72-1.16 3.174 3.174 0 012.613-.47c.993.119 1.904.167 2.486-.52l.28-.332a8.287 8.287 0 011.464-1.493v.568a9.594 9.594 0 00-1.117 1.224z" data-name="9499af46-5e53-4108-b291-3aa7c31b1d44" style="isolation:isolate" opacity=".3"/><path fill="#d3daed" d="M27.001 95.526a.243.243 0 01-.332-.224V79.437a.72.72 0 01.373-.623l13.01-7.556a.243.243 0 01.373.21h-.034l-12.994 7.555a.72.72 0 00-.373.624v15.865z" data-name="8126bb8f-c02d-429d-b768-af955b83961a"/><g data-name="459c4a01-6ea1-4852-a1e8-ae1e14fe9b84"><path fill="url(#aq)" d="M27.98 90.423a6.809 6.809 0 01.643-.937 2.108 2.108 0 011.866-.858l.202.048a1.986 1.986 0 00.418.075 1.679 1.679 0 001.493-1.12c.064-.134.127-.273.187-.41a2.856 2.856 0 01.612-1.012 2.785 2.785 0 012.277-.374 3.069 3.069 0 002.878-.675l.284-.336a6.309 6.309 0 011.866-1.702v-.444l-.209.052a6.652 6.652 0 00-1.982 1.81l-.302.35c-.586.688-1.508.64-2.487.52a3.195 3.195 0 00-2.613.47 3.233 3.233 0 00-.72 1.135c-.06.13-.115.264-.179.391-.104.213-.504.908-1.075.885a1.624 1.624 0 01-.329-.063.99.99 0 00-.23-.053 2.53 2.53 0 00-2.282 1.005 7.13 7.13 0 00-.683.997 3.198 3.198 0 01-1.374 1.493v.452l.172-.041a3.53 3.53 0 001.567-1.658z" data-name="1c7d13ad-0de7-4b1f-8c7c-c2e3dcef1932" transform="translate(.01 -3.457)"/></g></g><path fill="url(#ar)" d="M117.816 43.37v-.405a.363.363 0 01.168-.304l.441-.284a.741.741 0 01.773 0l18.062 10.426a2.16 2.16 0 01.972 1.687v18.945a.473.473 0 01-.263.42l-.389.194-19.591-11.298z" data-name="d30a60be-9476-4119-9617-97838ee87a5f" transform="translate(.01 -3.457)"/><path fill="#49486b" d="M117.573 39.94c0-.62.436-.873.972-.563l18.052 10.416a2.16 2.16 0 01.972 1.687v19.076L117.6 58.995z" data-name="6e892f12-8787-465e-8be9-3ca3e5952145"/><path fill="#5c629e" d="M136.597 49.793l-18.073-10.416c-.525-.31-.972-.057-.972.563v2.722l19.97 11.561V51.48a2.16 2.16 0 00-.925-1.687z" data-name="4fe68a92-c73f-45a3-be82-b7ac759f7f8b"/><path fill="#fff" d="M119.565 41.717a.228.228 0 00-.368.21.815.815 0 00.368.636.228.228 0 00.368-.21.815.815 0 00-.368-.636z" data-name="d9d54fd7-8501-47e9-90df-00b6f918f193"/><path fill="#fff" d="M121.362 42.773a.228.228 0 00-.368.21.815.815 0 00.368.636.228.228 0 00.368-.21.815.815 0 00-.368-.636z" data-name="4f62b2a3-a675-44db-8f8a-2ee59ea165bb"/><path fill="#fff" d="M123.16 43.83a.228.228 0 00-.368.21.815.815 0 00.367.636.228.228 0 00.368-.21.815.815 0 00-.368-.636z" data-name="5703efcd-7f4e-4e4e-aae6-f99c854f0853"/><path fill="#d3daed" d="M127.495 49.93l9.149 5.281v.605l-9.149-5.287v-.599z" data-name="27a7d64c-9779-4dd6-88fe-fd6843977988"/><path fill="#d3daed" d="M123.8 47.801l3.143 1.829v.599l-3.143-1.823v-.605z" data-name="2081d8e9-5f03-46d7-b558-00636aaca720"/><path fill="#e7b620" d="M125.372 50.429l2.612 1.513v.6l-2.612-1.514v-.599z" data-name="16cceef0-d101-4501-93bb-f812f5b22e17"/><path fill="#d3daed" d="M128.43 52.179l3.553 2.071v.599l-3.553-2.071v-.599z" data-name="60d4d986-3949-40dd-8815-c47cfe895426"/><path fill="#d3daed" d="M128.866 54.207l7.778 4.488v.599l-7.778-4.487v-.6z" data-name="84547a39-b2e9-4221-9c36-c58cf58ac72a"/><path fill="#e7b620" d="M125.971 52.536l2.06 1.193v.599l-2.06-1.187v-.605z" data-name="67130f0f-f284-4755-89e4-78878434ab06"/><path fill="#d3daed" d="M118.498 48.238l6.532 3.773v.599l-6.532-3.773v-.599z" data-name="fc45016c-097b-4bd2-b285-069e9d312dad"/><path fill="#d3daed" d="M122.334 52.061l5.303 3.101v.599l-5.303-3.101v-.599z" data-name="3c254a01-c322-4b4f-a3f2-0f2921a8d2ff"/><path fill="#e7b620" d="M120.511 50.994l1.429.831v.599l-1.429-.831v-.599z" data-name="1ea7a7b3-5184-4a06-857f-83a20394f7fb"/><path fill="#d3daed" d="M124.074 54.912l11.188 6.443v.599l-11.188-6.443v-.599z" data-name="56e0d556-551a-4e1f-bfb4-4b19268d3e19"/><path fill="#d3daed" d="M119.391 52.237l4.136 2.375v.599l-4.136-2.375v-.599z" data-name="2aeec9f0-6073-4519-8ea0-f3135214addd"/><path fill="#d3daed" d="M126.297 57.96l10.347 5.943v.599l-10.347-5.943v-.599z" data-name="9ea374a8-8d2a-4cdf-a300-ed306d7f7229"/><path fill="#d3daed" d="M121.462 55.18l4.288 2.48v.599l-4.288-2.48v-.599z" data-name="b04c0047-b930-4183-b947-15ffbf6932e9"/><path fill="#e7b620" d="M118.498 53.44l2.554 1.472v.599l-2.554-1.472v-.599z" data-name="51d7f316-36dc-4954-b757-19cd34ad745b"/><path fill="#e7b620" d="M133.339 63.63l1.471.841v.599l-1.471-.841v-.599z" data-name="9e3edf82-e013-4a54-b7c9-8779299aa20b"/><path fill="#e7b620" d="M131.473 62.526l1.419.804v.6l-1.419-.804v-.6z" data-name="1f6e358a-0d68-4342-8254-cd9452ff04a7"/><path fill="#d3daed" d="M126.77 61.654l9.874 5.718v.599l-9.874-5.718v-.599z" data-name="508cc3ab-a3e0-4f5f-8319-323c28a96f1e"/><path fill="#d3daed" d="M122.329 59.111l3.153 1.823v.599l-3.153-1.823v-.599z" data-name="7af39f1f-2a4c-4f14-bcb2-85c582261495"/><path fill="#e7b620" d="M118.498 56.914l1.65.941v.599l-1.65-.941v-.599z" data-name="3cb5b3b0-5c21-4cb4-8008-4a6a097cd8bc"/><path fill="#e7b620" d="M118.871 45.162l2.554 1.471v.599l-2.554-1.471v-.599z" data-name="51d7f316-36dc-4954-b757-19cd34ad745b"/></svg>